<svg width="24" height="24" viewBox="0 0 24 24" fill="none" xmlns="http://www.w3.org/2000/svg">
<g clip-path="url(#clip0_1_8637)">
<path d="M3.07127 4.32197H10.4768C10.6144 4.32197 10.7258 4.21046 10.7258 4.07297C10.7258 3.93549 10.6144 3.82397 10.4768 3.82397H3.07127C2.93364 3.82397 2.82227 3.93549 2.82227 4.07297C2.82227 4.21046 2.93359 4.32197 3.07127 4.32197Z" fill="white"/>
<path d="M3.07127 7.46187H15.4743C15.612 7.46187 15.7233 7.35035 15.7233 7.21287C15.7233 7.07538 15.612 6.96387 15.4743 6.96387H3.07127C2.93364 6.96387 2.82227 7.07538 2.82227 7.21287C2.82227 7.35035 2.93359 7.46187 3.07127 7.46187Z" fill="white"/>
<path d="M3.07127 10.602H11.1852C11.3228 10.602 11.4342 10.4905 11.4342 10.353C11.4342 10.2155 11.3228 10.104 11.1852 10.104H3.07127C2.93364 10.104 2.82227 10.2155 2.82227 10.353C2.82222 10.4905 2.93359 10.602 3.07127 10.602Z" fill="white"/>
<path d="M9.57677 13.4931C9.57677 13.3556 9.46539 13.2441 9.32777 13.2441H3.07127C2.93364 13.2441 2.82227 13.3557 2.82227 13.4931C2.82227 13.6307 2.93364 13.7421 3.07127 13.7421H9.32777C9.46539 13.7421 9.57677 13.6306 9.57677 13.4931Z" fill="white"/>
<path d="M23.46 7.15422L21.6845 5.37879C21.2761 4.97036 20.6137 4.97285 20.2103 5.37879L18.1311 7.45802V4.07393C18.1311 3.99672 18.0912 3.95688 18.0589 3.89711C15.7605 1.59869 14.8117 0.652473 14.4631 0.301332L14.4606 0.298848C14.4556 0.293879 14.4506 0.28891 14.4457 0.283941C14.4357 0.274004 14.4208 0.259051 14.4008 0.239082L14.4183 0.259004C14.4058 0.246535 14.3934 0.234113 14.3835 0.224129C14.3735 0.214191 14.3635 0.204207 14.3536 0.19427C14.3461 0.184285 14.3386 0.176832 14.3287 0.169379C14.3212 0.161879 14.3162 0.156957 14.3113 0.151941C14.3013 0.139473 14.2913 0.129488 14.2814 0.122035C14.2789 0.119551 14.2789 0.119551 14.2789 0.119551C14.2291 0.0697695 14.147 0.0473633 14.1046 0.0473633H1.6612C0.874312 0.0473633 0.234375 0.687301 0.234375 1.47672V22.5235C0.234375 23.3104 0.874359 23.9528 1.6612 23.9528H16.7017C17.4886 23.9528 18.1311 23.3103 18.1311 22.5235V13.9623L23.4599 8.63088C23.8684 8.2225 23.8684 7.56264 23.46 7.15422ZM17.6331 7.95602C12.1597 13.4294 10.6282 14.9609 10.2622 15.3269C10.2622 15.3269 10.1651 15.4241 10.1626 15.4265C10.1427 15.4464 10.1153 15.4863 10.1028 15.5186V15.5211L10.1003 15.5236V15.5286C10.1003 15.5311 10.0979 15.5311 10.0979 15.5311V15.536C10.0979 15.5385 10.0979 15.5385 10.0954 15.5385V15.541C10.0954 15.5435 10.0954 15.546 10.0929 15.5485C10.0929 15.551 10.0904 15.5535 10.0904 15.556V15.5584C10.0879 15.5609 10.0879 15.5609 10.0879 15.5634V15.5659C10.0854 15.5659 10.0854 15.5684 10.0854 15.5684C10.0854 15.5684 10.0854 15.5709 10.0854 15.5733C10.083 15.5758 10.083 15.5758 10.083 15.5758C10.0182 15.7651 9.76669 16.4972 8.92256 18.9599V18.9624C8.72086 19.5576 9.29358 20.1178 9.87877 19.9161L13.3177 18.7383C13.3525 18.7258 13.3949 18.6985 13.4148 18.6785L17.6331 14.4603V22.5233C17.6331 23.0363 17.2147 23.4547 16.7018 23.4547H1.6612C1.14825 23.4547 0.732375 23.0363 0.732375 22.5233V1.47668C0.732375 0.963723 1.1482 0.545363 1.6612 0.545363H13.8555V2.89357C13.8555 3.68041 14.4954 4.32293 15.2823 4.32293H17.633V7.95602H17.6331ZM12.7798 18.3948L9.71691 19.4432C9.5152 19.5129 9.32597 19.3187 9.39567 19.1219C10.1502 16.9256 10.3718 16.2757 10.4266 16.1113C10.4266 16.1113 10.4291 16.1088 10.4316 16.1014C10.4316 16.0989 10.4316 16.0989 10.4316 16.0964C10.434 16.0939 10.434 16.089 10.4365 16.084C10.4365 16.0815 10.4365 16.0815 10.4365 16.0815C10.439 16.0766 10.4415 16.0691 10.444 16.0616L12.7798 18.3948ZM23.1089 8.27979L21.814 9.57218L19.2666 7.02471L20.5615 5.72983C20.7731 5.51819 21.1392 5.53807 21.3334 5.72983L23.1089 7.5078C23.323 7.71949 23.323 8.06561 23.1089 8.27979Z" fill="white"/>
</g>
<defs>
<clipPath id="clip0_1_8637">
<rect width="24" height="24" fill="white"/>
</clipPath>
</defs>
</svg>
