<svg width="22" height="22" viewBox="0 0 22 22" fill="none" xmlns="http://www.w3.org/2000/svg">
<path d="M19.6772 2.51194C16.9199 3.65374 5.09775 8.55072 1.83119 9.88546C-0.359571 10.7404 0.922809 11.5418 0.922809 11.5418C0.922809 11.5418 2.79281 12.1829 4.39573 12.6638C5.99865 13.1448 6.85357 12.6104 6.85357 12.6104L14.3873 7.53432C17.0587 5.71778 16.4176 7.21378 15.7765 7.85486C14.3872 9.24416 12.0898 11.4347 10.1663 13.198C9.31141 13.946 9.73887 14.5873 10.1129 14.9078C11.5022 16.0833 15.2956 18.4877 15.5095 18.6481C16.6383 19.4471 18.8585 20.5975 19.1962 18.1671L20.5321 9.77854C20.9595 6.9467 21.387 4.32848 21.4405 3.58048C21.6006 1.76394 19.6772 2.51194 19.6772 2.51194Z" fill="#40B8DD"/>
</svg>
