<svg width="20" height="20" viewBox="0 0 20 20" fill="none" xmlns="http://www.w3.org/2000/svg">
<g clip-path="url(#clip0_1_8761)">
<path d="M19.375 13.75V18.75C19.375 19.0938 19.0938 19.375 18.75 19.375H12.5C5.95 19.375 0.625 14.05 0.625 7.5V1.25C0.625 0.90625 0.90625 0.625 1.25 0.625H6.25C6.59375 0.625 6.875 0.90625 6.875 1.25V6.25C6.875 6.41875 6.80625 6.575 6.69375 6.69375L5.00625 8.38125C5.1375 11.9688 8.03125 14.8687 11.6187 15L13.3063 13.3125C13.425 13.1937 13.5813 13.125 13.75 13.125H18.75C19.0938 13.125 19.375 13.4062 19.375 13.75ZM10 8.125C11.0312 8.125 11.875 8.96875 11.875 10C11.875 10.3438 12.1562 10.625 12.5 10.625C12.8438 10.625 13.125 10.3438 13.125 10C13.125 8.275 11.725 6.875 10 6.875C9.65625 6.875 9.375 7.15625 9.375 7.5C9.375 7.84375 9.65625 8.125 10 8.125ZM10 5C12.7563 5 15 7.24375 15 10C15 10.3438 15.2812 10.625 15.625 10.625C15.9688 10.625 16.25 10.3438 16.25 10C16.25 6.55625 13.4438 3.75 10 3.75C9.65625 3.75 9.375 4.03125 9.375 4.375C9.375 4.71875 9.65625 5 10 5ZM10 1.875C14.4812 1.875 18.125 5.51875 18.125 10C18.125 10.3438 18.4062 10.625 18.75 10.625C19.0938 10.625 19.375 10.3438 19.375 10C19.375 4.83125 15.1688 0.625 10 0.625C9.65625 0.625 9.375 0.90625 9.375 1.25C9.375 1.59375 9.65625 1.875 10 1.875Z" fill="#98A4B2"/>
</g>
<defs>
<clipPath id="clip0_1_8761">
<rect width="20" height="20" fill="white"/>
</clipPath>
</defs>
</svg>
