<svg width="20" height="20" viewBox="0 0 20 20" fill="none" xmlns="http://www.w3.org/2000/svg">
<path d="M1.24609 18.9259C1.57812 18.9259 1.89453 18.797 2.12891 18.5626L9.78516 10.9024C10.2734 10.4181 10.2734 9.629 9.78516 9.14072L2.12891 1.48447C1.63672 1.004 0.847656 1.01181 0.367188 1.50791C-0.105469 1.99228 -0.105469 2.76572 0.367188 3.25009L7.14453 10.0235L0.367188 16.8009C-0.121094 17.2892 -0.117188 18.0782 0.367188 18.5626C0.597656 18.797 0.914062 18.9259 1.24609 18.9259ZM1.24609 1.35166C1.51562 1.35166 1.77344 1.45713 1.96484 1.64853L9.62109 9.30478C10.0156 9.69931 10.0156 10.3438 9.62109 10.7384L1.96484 18.3985C1.54688 18.7735 0.90625 18.7423 0.53125 18.3243C0.183594 17.9376 0.183594 17.3517 0.53125 16.9649L7.46875 10.0235L0.527344 3.08213C0.132812 2.68369 0.132812 2.04306 0.53125 1.64463C0.722656 1.45712 0.980469 1.35166 1.24609 1.35166Z" fill="#98A4B2"/>
<path d="M8.10547 10.0236L0.75 2.66809C0.527344 2.45324 0.51953 2.10168 0.734374 1.87902C0.949218 1.65637 1.30078 1.64856 1.52344 1.8634C1.53125 1.86731 1.53516 1.87512 1.53906 1.87902L9.28516 9.62902C9.50391 9.84777 9.50391 10.1993 9.28516 10.4181L1.53516 18.1681C1.31641 18.3868 0.964844 18.3868 0.746094 18.1681C0.527344 17.9493 0.527344 17.5978 0.746094 17.379L8.10547 10.0236Z" fill="#98A4B2"/>
<path d="M11.0938 18.8829C11.4258 18.8829 11.7422 18.754 11.9766 18.5157L19.6367 10.8595C20.1211 10.3712 20.1211 9.58606 19.6367 9.09777L11.9766 1.43762C11.4961 0.945432 10.707 0.933713 10.2148 1.41418C9.72266 1.89465 9.71094 2.68371 10.1914 3.1759C10.1992 3.18371 10.207 3.19153 10.2148 3.19934L16.9922 9.97668L10.2148 16.754C9.72656 17.2423 9.73047 18.0314 10.2148 18.5157C10.4492 18.7501 10.7656 18.8829 11.0938 18.8829ZM11.0938 1.30481C11.3633 1.30481 11.6211 1.41028 11.8125 1.60168L19.4727 9.26184C19.8672 9.65637 19.8672 10.3009 19.4727 10.6954L11.8125 18.3556C11.3945 18.7306 10.7539 18.6993 10.3789 18.2814C10.0312 17.8946 10.0312 17.3087 10.3789 16.922L17.3203 9.97668L10.3789 3.03528C9.98438 2.63684 9.98438 1.99621 10.3828 1.59778C10.5703 1.41028 10.8281 1.30481 11.0938 1.30481Z" fill="#98A4B2"/>
<path d="M10.7148 1.83203C10.9336 1.61328 11.2852 1.61328 11.5039 1.83203L19.2539 9.58203C19.4727 9.80078 19.4727 10.1523 19.2539 10.3711L11.5039 18.1211C11.2852 18.3398 10.9336 18.3398 10.7148 18.1211C10.4961 17.9023 10.4961 17.5508 10.7148 17.332L18.0703 9.97656L10.7148 2.62109C10.4961 2.40234 10.4961 2.05078 10.7148 1.83203Z" fill="#98A4B2"/>
</svg>
