<svg width="25" height="25" viewBox="0 0 25 25" fill="none" xmlns="http://www.w3.org/2000/svg">
<path d="M21.5731 3.80548C21.5731 3.80548 23.5965 3.01642 23.4272 4.93256C23.3715 5.72162 22.8658 8.4836 22.472 11.4706L21.1231 20.3195C21.1231 20.3195 21.0106 21.6159 19.9986 21.8414C18.9871 22.0664 17.4694 21.0524 17.1882 20.8268C16.9632 20.6576 12.9725 18.1211 11.5673 16.8815C11.1736 16.543 10.7236 15.8669 11.6236 15.0779L17.5257 9.44141C18.2001 8.76433 18.8746 7.18621 16.0642 9.10287L8.19442 14.457C8.19442 14.457 7.29494 15.0211 5.60901 14.5138L1.95484 13.3862C1.95484 13.3862 0.605882 12.5409 2.91057 11.6956C8.53192 9.04662 15.446 6.34141 21.5725 3.80496" fill="#98A4B2"/>
</svg>
