<svg width="28" height="28" viewBox="0 0 28 28" fill="none" xmlns="http://www.w3.org/2000/svg">
<g clip-path="url(#clip0_1_4150)">
<path fill-rule="evenodd" clip-rule="evenodd" d="M25.6749 18.8492C25.6748 19.0569 25.5922 19.2561 25.4454 19.403C25.2985 19.5499 25.0994 19.6326 24.8917 19.6328H21.9462C21.7319 15.435 18.2493 12.086 13.9996 12.086C9.7498 12.086 6.2673 15.435 6.05292 19.6328H3.10745C2.89977 19.6325 2.70069 19.5498 2.5539 19.4029C2.40711 19.256 2.32461 19.0568 2.32449 18.8492V1.65875C2.32459 1.45106 2.40709 1.25189 2.55388 1.10496C2.70067 0.958023 2.89976 0.87533 3.10745 0.875026H8.82399C8.97321 0.871802 9.12005 0.912665 9.24615 0.9925C9.37225 1.07233 9.472 1.18759 9.53291 1.32385L11.4496 5.38713C11.5315 5.56326 11.6623 5.71216 11.8265 5.81612C11.9906 5.92007 12.1811 5.97471 12.3753 5.97354H24.8917C25.0994 5.9738 25.2985 6.05646 25.4454 6.20339C25.5922 6.35031 25.6748 6.54949 25.6749 6.75721V18.8492ZM24.9869 5.10133V2.58674C24.9867 2.31538 24.8788 2.05518 24.687 1.86326C24.4951 1.67134 24.235 1.56337 23.9636 1.56305H10.6127L10.3241 0.951151C10.1914 0.665592 9.97949 0.424148 9.71356 0.255536C9.44763 0.0869237 9.13887 -0.00176193 8.82399 2.65254e-05H3.10745C2.66776 0.000634453 2.24626 0.175603 1.9354 0.486557C1.62454 0.797511 1.4497 1.21906 1.44922 1.65875V18.8492C1.44971 19.2888 1.62456 19.7104 1.93542 20.0213C2.24628 20.3323 2.66777 20.5072 3.10745 20.5078H6.05626C6.29798 24.6799 9.7679 28 13.9996 28C18.2312 28 21.7012 24.68 21.9424 20.5078H24.8917C25.3314 20.5072 25.7529 20.3323 26.0637 20.0213C26.3746 19.7103 26.5494 19.2888 26.5499 18.8491V6.75721C26.5495 6.334 26.3874 5.92693 26.0969 5.61917C25.8064 5.31141 25.4094 5.12618 24.9869 5.10133ZM10.5232 21.4776L13.69 24.6449C13.7306 24.6856 13.7789 24.7178 13.832 24.7399C13.8851 24.7619 13.942 24.7732 13.9995 24.7732C14.057 24.7732 14.114 24.7619 14.1671 24.7399C14.2202 24.7178 14.2685 24.6856 14.3091 24.6449L17.4762 21.4776C17.5582 21.3954 17.6043 21.2841 17.6042 21.1681C17.6042 21.052 17.558 20.9407 17.4759 20.8587C17.3938 20.7767 17.2825 20.7306 17.1664 20.7307C17.0504 20.7307 16.9391 20.7769 16.857 20.859L14.4371 23.2794V15.7507C14.4371 15.6347 14.391 15.5234 14.3089 15.4414C14.2269 15.3593 14.1156 15.3132 13.9996 15.3132C13.8835 15.3132 13.7723 15.3593 13.6902 15.4414C13.6082 15.5234 13.5621 15.6347 13.5621 15.7507V23.2794L11.1415 20.859C11.0587 20.7808 10.9487 20.7381 10.8349 20.7397C10.7211 20.7414 10.6124 20.7874 10.5319 20.8679C10.4514 20.9484 10.4055 21.0571 10.4038 21.171C10.4022 21.2848 10.445 21.3948 10.5232 21.4776Z" fill="white"/>
</g>
<defs>
<clipPath id="clip0_1_4150">
<rect width="28" height="28" fill="white"/>
</clipPath>
</defs>
</svg>
