<svg width="22" height="22" viewBox="0 0 22 22" fill="none" xmlns="http://www.w3.org/2000/svg">
<g clip-path="url(#clip0_1_6047)">
<path d="M21.0604 0.0224609H8.9375V22.0225H21.0833C21.6104 22.0225 22.0229 21.61 22.0229 21.0829V0.870378C22 0.389128 21.5646 0.0224609 21.0604 0.0224609ZM18.1958 17.5079H12.6958C12.1688 17.5079 11.7562 17.0954 11.7562 16.5683C11.7562 16.0412 12.1688 15.6287 12.6958 15.6287H18.1729C18.7 15.6287 19.1125 16.0412 19.1125 16.5683C19.1125 17.0954 18.7229 17.5079 18.1958 17.5079ZM18.1958 11.9162H12.6958C12.1688 11.9162 11.7562 11.5037 11.7562 10.9766C11.7562 10.4495 12.1688 10.037 12.6958 10.037H18.1729C18.7 10.037 19.1125 10.4495 19.1125 10.9766C19.1125 11.4808 18.7229 11.9162 18.1958 11.9162ZM18.1958 6.25579H12.6958C12.1688 6.25579 11.7562 5.84329 11.7562 5.31621C11.7562 4.78913 12.1688 4.37663 12.6958 4.37663H18.1729C18.7 4.37663 19.1125 4.78913 19.1125 5.31621C19.1125 5.84329 18.7229 6.25579 18.1958 6.25579Z" fill="#98A4B2"/>
<path d="M5.31667 14.4826C4.78958 14.4826 4.37708 14.0701 4.37708 13.543C4.37708 13.0159 4.78958 12.6034 5.31667 12.6034H7.05833V9.28047H5.27083C4.74375 9.28047 4.33125 8.86797 4.33125 8.34089C4.33125 7.8138 4.74375 7.4013 5.27083 7.4013H7.05833V3.23047H0.939583C0.4125 3.23047 0 3.64297 0 4.17005V17.7826C0 18.3096 0.4125 18.7221 0.939583 18.7221H7.05833V14.4826H5.31667Z" fill="#98A4B2"/>
</g>
<defs>
<clipPath id="clip0_1_6047">
<rect width="22" height="22" fill="white"/>
</clipPath>
</defs>
</svg>
