<svg width="27" height="27" viewBox="0 0 27 27" fill="none" xmlns="http://www.w3.org/2000/svg">
<path d="M21.4297 5.52382C20.3983 4.48198 19.1698 3.65594 17.8158 3.09387C16.4618 2.53181 15.0094 2.24496 13.5434 2.25007C7.40094 2.25007 2.39469 7.25632 2.39469 13.3988C2.39469 15.3676 2.91219 17.2801 3.87969 18.9676L2.30469 24.7501L8.21094 23.1976C9.84219 24.0863 11.6759 24.5588 13.5434 24.5588C19.6859 24.5588 24.6922 19.5526 24.6922 13.4101C24.6922 10.4288 23.5334 7.62757 21.4297 5.52382ZM13.5434 22.6688C11.8784 22.6688 10.2472 22.2188 8.81844 21.3751L8.48094 21.1726L4.97094 22.0951L5.90469 18.6751L5.67969 18.3263C4.75465 16.8492 4.26347 15.1417 4.26219 13.3988C4.26219 8.29132 8.42469 4.12882 13.5322 4.12882C16.0072 4.12882 18.3359 5.09632 20.0797 6.85132C20.9431 7.71078 21.6274 8.73306 22.0928 9.85892C22.5582 10.9848 22.7955 12.1918 22.7909 13.4101C22.8134 18.5176 18.6509 22.6688 13.5434 22.6688ZM18.6284 15.7388C18.3472 15.6038 16.9747 14.9288 16.7272 14.8276C16.4684 14.7376 16.2884 14.6926 16.0972 14.9626C15.9059 15.2438 15.3772 15.8738 15.2197 16.0538C15.0622 16.2451 14.8934 16.2676 14.6122 16.1213C14.3309 15.9863 13.4309 15.6826 12.3734 14.7376C11.5409 13.9951 10.9897 13.0838 10.8209 12.8026C10.6634 12.5213 10.7984 12.3751 10.9447 12.2288C11.0684 12.1051 11.2259 11.9026 11.3609 11.7451C11.4959 11.5876 11.5522 11.4638 11.6422 11.2838C11.7322 11.0926 11.6872 10.9351 11.6197 10.8001C11.5522 10.6651 10.9897 9.29257 10.7647 8.73007C10.5397 8.19007 10.3034 8.25757 10.1347 8.24632H9.59469C9.40344 8.24632 9.11094 8.31382 8.85219 8.59507C8.60469 8.87632 7.88469 9.55132 7.88469 10.9238C7.88469 12.2963 8.88594 13.6238 9.02094 13.8038C9.15594 13.9951 10.9897 16.8076 13.7797 18.0113C14.4434 18.3038 14.9609 18.4726 15.3659 18.5963C16.0297 18.8101 16.6372 18.7763 17.1209 18.7088C17.6609 18.6301 18.7747 18.0338 18.9997 17.3813C19.2359 16.7288 19.2359 16.1776 19.1572 16.0538C19.0784 15.9301 18.9097 15.8738 18.6284 15.7388Z" fill="#98A4B2"/>
</svg>
