<svg width="16" height="8" viewBox="0 0 16 8" fill="none" xmlns="http://www.w3.org/2000/svg">
<path d="M2.51401e-07 0.988406C2.51401e-07 1.2498 0.115728 1.4989 0.329651 1.68342L7.20322 7.714C7.64158 8.09533 8.34647 8.09533 8.78484 7.714L15.6619 1.68342C16.1038 1.30516 16.1143 0.683955 15.683 0.296472C15.2516 -0.0910103 14.5432 -0.100236 14.1013 0.278021C14.0943 0.284171 14.0873 0.290322 14.0803 0.296472L7.99578 5.63205L1.91127 0.296472C1.47291 -0.0879351 0.764509 -0.0848598 0.329651 0.296472C0.119235 0.480988 2.51401e-07 0.730084 2.51401e-07 0.988406ZM15.7811 0.988406C15.7811 1.2006 15.6865 1.40357 15.5146 1.55425L8.63755 7.58484C8.28335 7.89544 7.70471 7.89544 7.35051 7.58484L0.473435 1.55425C0.13677 1.2252 0.164825 0.720858 0.540066 0.425633C0.887251 0.151935 1.41329 0.151935 1.76047 0.425633L7.99578 5.89037L14.2276 0.425633C14.5853 0.115032 15.1604 0.115032 15.5181 0.428709C15.6865 0.576321 15.7811 0.779288 15.7811 0.988406Z" fill="white"/>
<path d="M15.3078 0.689824C15.5042 0.862038 15.5042 1.13881 15.3078 1.31103L8.35005 7.41234C8.15367 7.58456 7.83804 7.58456 7.64166 7.41234L0.683923 1.31103C0.487536 1.13881 0.487536 0.862038 0.683923 0.689824C0.880311 0.517609 1.19593 0.517609 1.39232 0.689824L7.99586 6.48054L14.5994 0.689824C14.7958 0.517609 15.1114 0.517609 15.3078 0.689824Z" fill="white"/>
</svg>
