<svg width="70" height="23" viewBox="0 0 70 23" fill="none" xmlns="http://www.w3.org/2000/svg">
<path d="M66.7975 8.28059H69.9997C69.5947 5.17524 67.3184 3.54297 64.1547 3.54297C60.9526 3.54297 58.8113 5.23499 58.8113 8.14125C58.8113 11.4456 61.5698 12.1821 63.0359 12.4808C64.9263 12.859 66.7782 12.8988 66.7782 14.5708C66.7782 15.7055 65.8523 16.2628 64.5405 16.2628C62.9202 16.2628 61.84 15.4268 61.5698 13.914H58.4062C58.5991 17.1786 60.8947 18.9303 64.2706 18.9303C67.3955 18.9303 69.9611 17.4573 69.9611 14.2723C69.9611 10.8484 67.0097 10.2314 64.9456 9.91286C63.5374 9.69393 61.9942 9.49484 61.9942 7.96207C61.9942 6.88717 62.7851 6.2303 64.1161 6.2303C65.6594 6.2303 66.5852 7.12611 66.7975 8.28059Z" fill="#717D8A"/>
<path d="M56.6517 4.04102H53.623V18.4727H56.6517V4.04102Z" fill="#717D8A"/>
<path d="M44.4789 13.4363H48.4335C47.8161 14.9891 46.4272 15.7254 44.8261 15.7254C42.0098 15.7254 40.6981 13.4761 40.6981 11.2466C40.6981 8.99725 41.9326 6.70811 44.8069 6.70811C46.5623 6.70811 47.8739 7.54416 48.3755 9.03709L51.6355 9.0371C51.0762 5.67306 48.2212 3.74219 44.8455 3.74219C40.6788 3.74219 37.5537 6.66828 37.5537 11.2865C37.5537 15.9644 40.9487 18.7313 44.8261 18.7313C48.6456 18.7313 51.6355 16.1635 51.6355 12.1425V10.968H44.4789V13.4363Z" fill="#717D8A"/>
<path d="M30.629 3.74219C27.1568 3.74219 24.5912 5.9915 24.6105 9.73381H27.7355C27.6969 8.10154 28.7 6.60861 30.4747 6.60861C32.0179 6.60861 32.9246 7.72335 32.9246 8.99726C32.9246 10.2713 32.0179 10.9879 30.3396 11.7643C28.0441 12.8192 26.4045 13.496 24.7262 14.0932V18.4725H36.4161V15.5264H28.3909C28.3909 15.5264 28.4176 15.5178 28.4307 15.5137C29.7957 15.0869 30.8212 14.6232 32.0372 14.0733C34.6414 12.879 36.1267 11.386 36.1267 8.83808C36.1268 5.7128 33.8891 3.74219 30.629 3.74219Z" fill="#717D8A"/>
<path d="M16.3925 13.3967C12.4573 13.4167 11.8207 15.8651 11.6086 17.9353L11.5121 18.8509H10.7212L10.6247 17.9353C10.4126 15.8651 9.75671 13.4167 5.95649 13.3967C5.31993 12.0431 5.04986 10.9483 5.04986 9.7141C5.04986 6.62875 7.49974 3.74231 11.1262 3.74231C14.7528 3.74231 17.1641 6.60873 17.1641 9.7341C17.1641 10.9483 17.0484 12.0431 16.3925 13.3967ZM11.0877 0C5.10779 0 0.208008 5.05614 0.208008 11.2468C0.208008 17.4575 5.10779 22.5136 11.0877 22.5136C17.1255 22.5136 22.006 17.4575 22.006 11.2468C22.006 5.05616 17.1255 0 11.0877 0Z" fill="#28C874"/>
</svg>
