<svg width="137" height="137" viewBox="0 0 137 137" fill="none" xmlns="http://www.w3.org/2000/svg">
<path d="M136.845 69.9714L136.79 70.9899L128.403 70.5364L128.458 69.5179L136.845 69.9714ZM135.856 70.4828L136.815 70.5346L136.722 72.2481C136.693 72.7913 136.563 73.269 136.332 73.6811C136.109 74.1017 135.803 74.4256 135.415 74.653C135.025 74.8883 134.571 74.9919 134.052 74.9638C133.54 74.9362 133.1 74.7842 132.73 74.5078C132.368 74.2399 132.095 73.8846 131.911 73.442C131.734 73.0078 131.66 72.5192 131.69 71.9759L131.782 70.2625L132.741 70.3143L132.648 72.0278C132.619 72.571 132.727 73.0175 132.972 73.3672C133.217 73.725 133.596 73.9177 134.107 73.9453C134.626 73.9734 135.023 73.8226 135.297 73.4929C135.579 73.1717 135.734 72.7395 135.764 72.1962L135.856 70.4828Z" fill="white"/>
<path d="M136.264 78.1234L136.072 79.1253L127.821 77.5515L128.012 76.5496L136.264 78.1234ZM127.54 79.025L127.907 77.1036L128.909 77.2947L128.542 79.2161C128.454 79.6797 128.443 80.1176 128.511 80.5296C128.587 80.9431 128.733 81.3129 128.947 81.6389C129.17 81.9664 129.46 82.2415 129.816 82.4643C130.173 82.687 130.591 82.8441 131.07 82.9356C131.549 83.027 131.996 83.0348 132.409 82.9589C132.823 82.8831 133.189 82.7331 133.509 82.509C133.837 82.2864 134.108 81.9961 134.323 81.638C134.545 81.2814 134.701 80.8713 134.79 80.4077L135.156 78.4863L136.158 78.6774L135.791 80.5988C135.639 81.4003 135.33 82.0785 134.866 82.6334C134.402 83.1883 133.825 83.5833 133.137 83.8185C132.457 84.0552 131.704 84.0949 130.879 83.9375C130.054 83.7801 129.365 83.4654 128.811 82.9934C128.266 82.5228 127.879 81.9442 127.652 81.2574C127.425 80.5707 127.387 79.8265 127.54 79.025Z" fill="white"/>
<path d="M133.089 87.9309L134.004 88.2238L132.858 91.8007L131.943 91.5078L133.089 87.9309ZM129.89 86.9057L130.804 87.1986L129.694 90.6613L128.78 90.3684L129.89 86.9057ZM134.176 87.6867L133.864 88.658L125.865 86.0952L126.176 85.1238L134.176 87.6867Z" fill="white"/>
<path d="M121.679 111.64L121.009 112.409L114.674 106.893L115.344 106.124L121.679 111.64ZM120.585 111.435L121.309 112.065L120.182 113.359C119.825 113.769 119.428 114.066 118.993 114.249C118.559 114.444 118.118 114.511 117.672 114.451C117.22 114.398 116.798 114.2 116.406 113.858C116.02 113.522 115.766 113.132 115.644 112.686C115.524 112.252 115.527 111.804 115.653 111.342C115.781 110.891 116.023 110.46 116.381 110.05L117.507 108.755L118.231 109.386L117.105 110.68C116.747 111.09 116.558 111.509 116.536 111.936C116.51 112.368 116.689 112.753 117.076 113.089C117.468 113.431 117.873 113.556 118.292 113.464C118.712 113.384 119.101 113.139 119.458 112.729L120.585 111.435Z" fill="white"/>
<path d="M116.313 117.582L115.548 118.258L109.987 111.963L110.751 111.287L116.313 117.582ZM108.863 112.956L110.328 111.661L111.004 112.425L109.538 113.72C109.184 114.033 108.908 114.373 108.71 114.74C108.517 115.114 108.405 115.495 108.375 115.884C108.351 116.279 108.412 116.674 108.557 117.069C108.703 117.463 108.937 117.843 109.26 118.209C109.583 118.574 109.932 118.854 110.305 119.047C110.679 119.24 111.06 119.346 111.45 119.364C111.845 119.389 112.238 119.325 112.627 119.174C113.021 119.028 113.395 118.799 113.749 118.486L115.215 117.191L115.89 117.956L114.424 119.251C113.813 119.791 113.154 120.139 112.447 120.293C111.74 120.448 111.043 120.408 110.354 120.172C109.672 119.943 109.052 119.514 108.496 118.884C107.94 118.255 107.587 117.584 107.439 116.872C107.295 116.166 107.344 115.472 107.584 114.79C107.825 114.107 108.251 113.496 108.863 112.956Z" fill="white"/>
<path d="M107.65 123.483L108.192 124.275L105.091 126.395L104.549 125.602L107.65 123.483ZM105.754 120.709L106.296 121.501L103.294 123.553L102.752 122.761L105.754 120.709ZM108.658 123.957L107.816 124.533L103.075 117.598L103.917 117.022L108.658 123.957Z" fill="white"/>
<path d="M84.1358 135.155L83.1346 135.35L81.5293 127.104L82.5305 126.91L84.1358 135.155ZM83.3988 134.32L83.5822 135.262L81.8979 135.59C81.3639 135.694 80.8689 135.685 80.413 135.562C79.9507 135.448 79.562 135.23 79.2467 134.909C78.9235 134.588 78.7123 134.173 78.6129 133.663C78.5151 133.16 78.5551 132.696 78.733 132.27C78.9046 131.854 79.1825 131.502 79.5668 131.215C79.9447 130.938 80.4007 130.747 80.9347 130.643L82.619 130.315L82.8025 131.258L81.1181 131.586C80.5842 131.69 80.1775 131.903 79.8981 132.227C79.6109 132.551 79.5163 132.965 79.6141 133.468C79.7135 133.978 79.9565 134.326 80.3431 134.512C80.7233 134.707 81.1804 134.752 81.7144 134.648L83.3988 134.32Z" fill="white"/>
<path d="M76.2266 136.549L75.2083 136.608L74.7224 128.222L75.7407 128.163L76.2266 136.549ZM73.2249 128.308L75.1777 128.195L75.2367 129.214L73.2839 129.327C72.8127 129.354 72.3856 129.451 72.0026 129.617C71.6201 129.792 71.2969 130.023 71.0331 130.311C70.7697 130.606 70.5735 130.954 70.4445 131.354C70.3154 131.755 70.265 132.198 70.2932 132.685C70.3214 133.173 70.4228 133.607 70.5972 133.99C70.7716 134.373 71.0064 134.691 71.3017 134.947C71.5974 135.21 71.9451 135.402 72.3448 135.523C72.7449 135.653 73.1806 135.703 73.6518 135.676L75.6046 135.563L75.6636 136.581L73.7108 136.694C72.8962 136.742 72.1632 136.608 71.5119 136.293C70.8606 135.978 70.337 135.516 69.941 134.905C69.5455 134.303 69.3235 133.583 69.2749 132.744C69.2263 131.906 69.3635 131.161 69.6863 130.509C70.0096 129.865 70.4765 129.349 71.0871 128.961C71.6977 128.573 72.4103 128.356 73.2249 128.308Z" fill="white"/>
<path d="M65.5587 135.848L65.4958 136.806L61.7479 136.559L61.8108 135.602L65.5587 135.848ZM65.7789 132.495L65.716 133.453L62.0878 133.215L62.1507 132.257L65.7789 132.495ZM66.0586 136.843L65.0408 136.776L65.5913 128.394L66.6091 128.461L66.0586 136.843Z" fill="white"/>
<path d="M36.8706 129.029L35.9867 128.52L40.179 121.241L41.0628 121.75L36.8706 129.029ZM36.861 127.916L36.3818 128.748L34.8948 127.891C34.4234 127.62 34.0559 127.288 33.7923 126.896C33.5178 126.507 33.3669 126.088 33.3396 125.638C33.3054 125.185 33.4181 124.733 33.6776 124.282C33.9331 123.838 34.2677 123.514 34.6811 123.309C35.0837 123.107 35.5241 123.024 36.0022 123.059C36.4695 123.097 36.9388 123.252 37.4102 123.524L38.8972 124.38L38.4181 125.212L36.9311 124.356C36.4597 124.084 36.0125 123.979 35.5896 124.04C35.1597 124.097 34.817 124.348 34.5615 124.791C34.302 125.242 34.2574 125.664 34.4277 126.057C34.5871 126.454 34.9025 126.788 35.3739 127.059L36.861 127.916Z" fill="white"/>
<path d="M30.0122 124.916L29.2029 124.295L34.3161 117.631L35.1254 118.252L30.0122 124.916ZM33.1261 116.718L34.6779 117.908L34.057 118.718L32.5052 117.527C32.1307 117.24 31.7441 117.034 31.3454 116.909C30.9419 116.791 30.5463 116.755 30.1586 116.8C29.766 116.852 29.3901 116.987 29.0309 117.206C28.6717 117.424 28.3435 117.727 28.0465 118.114C27.7494 118.501 27.5419 118.897 27.4239 119.3C27.3058 119.704 27.2751 120.099 27.3317 120.485C27.3834 120.878 27.5209 121.25 27.7443 121.603C27.9628 121.962 28.2593 122.286 28.6337 122.573L30.1856 123.764L29.5647 124.573L28.0129 123.382C27.3654 122.885 26.8982 122.305 26.611 121.641C26.3239 120.977 26.2298 120.285 26.3289 119.564C26.4231 118.85 26.7259 118.16 27.2372 117.493C27.7485 116.827 28.3394 116.352 29.0097 116.07C29.6751 115.794 30.3657 115.709 31.0814 115.814C31.7971 115.92 32.4786 116.221 33.1261 116.718Z" fill="white"/>
<path d="M22.5769 117.569L21.9031 118.253L19.228 115.617L19.9018 114.933L22.5769 117.569ZM24.9355 115.176L24.2616 115.86L21.672 113.308L22.3458 112.624L24.9355 115.176ZM22.3048 118.649L21.5783 117.933L27.4747 111.95L28.2012 112.666L22.3048 118.649Z" fill="white"/>
<path d="M6.61325 96.8723L6.22646 95.9284L13.9991 92.7431L14.3859 93.687L6.61325 96.8723ZM7.28768 95.9864L6.39938 96.3504L5.74867 94.7626C5.54238 94.2592 5.45508 93.7719 5.48677 93.3007C5.50801 92.8251 5.64557 92.4013 5.89945 92.0292C6.15029 91.6498 6.51629 91.3615 6.99746 91.1643C7.47122 90.9701 7.9343 90.9187 8.38669 91.0099C8.82865 91.0968 9.22777 91.3007 9.58405 91.6216C9.9299 91.9381 10.206 92.348 10.4123 92.8514L11.063 94.4392L10.1747 94.8032L9.52395 93.2154C9.31766 92.712 9.02867 92.355 8.65698 92.1442C8.28225 91.926 7.85801 91.9139 7.38424 92.1081C6.90308 92.3053 6.60928 92.6116 6.50285 93.0269C6.38598 93.438 6.43068 93.8951 6.63697 94.3985L7.28768 95.9864Z" fill="white"/>
<path d="M3.66495 89.2993L3.40939 88.3118L11.5415 86.2072L11.797 87.1946L3.66495 89.2993ZM11.1656 84.755L11.6557 86.6486L10.6682 86.9042L10.1782 85.0106C10.0599 84.5536 9.88196 84.1534 9.64433 83.81C9.39897 83.4686 9.10954 83.1964 8.77606 82.9935C8.43484 82.7926 8.05544 82.6677 7.63786 82.6187C7.22028 82.5698 6.77527 82.6065 6.30284 82.7288C5.8304 82.851 5.42348 83.0348 5.08207 83.2802C4.74065 83.5256 4.47336 83.8179 4.28019 84.1571C4.07928 84.4983 3.95823 84.8767 3.91704 85.2923C3.8681 85.7099 3.90276 86.1471 4.02103 86.6041L4.51111 88.4977L3.52364 88.7533L3.03356 86.8596C2.82911 86.0697 2.8181 85.3247 3.00052 84.6246C3.18294 83.9246 3.53497 83.3211 4.05662 82.8143C4.57051 82.3094 5.23407 81.9518 6.04727 81.7413C6.86048 81.5308 7.6181 81.5207 8.32014 81.7108C9.01444 81.903 9.61115 82.2609 10.1103 82.7846C10.6094 83.3082 10.9612 83.965 11.1656 84.755Z" fill="white"/>
<path d="M2.33831 79.059L1.38653 79.1844L0.895907 75.4606L1.84768 75.3352L2.33831 79.059ZM5.66952 78.6201L4.71774 78.7455L4.24279 75.1406L5.19457 75.0152L5.66952 78.6201ZM1.4602 79.7435L1.32697 78.7323L9.655 77.635L9.78823 78.6463L1.4602 79.7435Z" fill="white"/>
<path d="M2.47612 52.6592L2.75409 51.6778L10.8362 53.967L10.5582 54.9484L2.47612 52.6592ZM3.55349 52.3782L2.62982 52.1166L3.09747 50.4655C3.24572 49.9421 3.47768 49.5048 3.79336 49.1535C4.10352 48.7924 4.47327 48.5437 4.90263 48.4076C5.33416 48.2637 5.80009 48.2627 6.3004 48.4044C6.79302 48.5439 7.18918 48.7891 7.48889 49.1401C7.78307 49.4812 7.97136 49.8879 8.05376 50.3602C8.13064 50.8227 8.09496 51.3156 7.94671 51.839L7.47906 53.4901L6.5554 53.2284L7.02304 51.5774C7.17129 51.054 7.1642 50.5947 7.00176 50.1994C6.84149 49.7965 6.51505 49.5253 6.02243 49.3858C5.52212 49.2441 5.10193 49.3038 4.76187 49.565C4.4163 49.8164 4.16938 50.2037 4.02113 50.7271L3.55349 52.3782Z" fill="white"/>
<path d="M4.84314 44.8151L5.25097 43.8802L12.9503 47.2389L12.5425 48.1738L4.84314 44.8151ZM13.5501 45.864L12.768 47.6568L11.833 47.249L12.6151 45.4561C12.8039 45.0235 12.9106 44.5988 12.9353 44.1819C12.9528 43.7618 12.8928 43.3691 12.7554 43.0037C12.6107 42.6351 12.3891 42.3027 12.0906 42.0067C11.7921 41.7106 11.4192 41.465 10.9719 41.2699C10.5246 41.0748 10.0909 40.9685 9.67082 40.9511C9.25075 40.9337 8.86008 40.9989 8.49881 41.1468C8.13021 41.2915 7.80155 41.5147 7.51282 41.8164C7.21677 42.115 6.97437 42.4805 6.78565 42.9132L6.00357 44.706L5.06865 44.2982L5.85073 42.5053C6.177 41.7574 6.6278 41.1642 7.20314 40.7256C7.77848 40.2871 8.42776 40.0292 9.15098 39.9519C9.86687 39.8714 10.6098 39.9991 11.3797 40.335C12.1496 40.6709 12.7523 41.1301 13.1876 41.7128C13.6156 42.2923 13.8646 42.942 13.9345 43.662C14.0045 44.3821 13.8763 45.116 13.5501 45.864Z" fill="white"/>
<path d="M10.0754 36.0015L9.24886 35.5132L11.1592 32.2793L11.9858 32.7676L10.0754 36.0015ZM12.9683 37.7105L12.1418 37.2222L13.9911 34.0916L14.8177 34.5799L12.9683 37.7105ZM8.962 35.9988L9.48079 35.1206L16.7131 39.393L16.1943 40.2712L8.962 35.9988Z" fill="white"/>
<path d="M26.395 15.3437L27.2176 14.7407L32.1837 21.5155L31.361 22.1185L26.395 15.3437ZM27.4174 15.7846L26.8498 15.0103L28.2338 13.9958C28.6726 13.6742 29.1244 13.4719 29.5894 13.389C30.056 13.2949 30.5005 13.3262 30.9228 13.4828C31.3516 13.6347 31.7197 13.9204 32.0271 14.3398C32.3298 14.7527 32.4914 15.1897 32.512 15.6508C32.5342 16.1006 32.4326 16.5371 32.2072 16.9603C31.9835 17.3723 31.6522 17.7391 31.2135 18.0607L29.8295 19.0752L29.2619 18.3009L30.6459 17.2864C31.0847 16.9648 31.3615 16.5982 31.4764 16.1867C31.5978 15.7704 31.5071 15.3557 31.2044 14.9428C30.897 14.5234 30.5289 14.3122 30.1001 14.3091C29.6731 14.2948 29.2401 14.4484 28.8014 14.7701L27.4174 15.7846Z" fill="white"/>
<path d="M32.9236 10.707L33.8185 10.2176L37.8487 17.5877L36.9537 18.0771L32.9236 10.707ZM39.1647 16.868L37.4486 17.8065L36.9592 16.9115L38.6754 15.9731C39.0895 15.7466 39.434 15.4762 39.7088 15.1618C39.9798 14.8404 40.1729 14.4931 40.2881 14.1202C40.3994 13.7401 40.4277 13.3417 40.373 12.9248C40.3183 12.508 40.1739 12.0855 39.9398 11.6573C39.7056 11.2291 39.4279 10.8796 39.1064 10.6085C38.785 10.3375 38.4362 10.1499 38.06 10.0456C37.68 9.93423 37.2835 9.90943 36.8705 9.97116C36.4536 10.0259 36.0381 10.1664 35.624 10.3929L33.9078 11.3314L33.4184 10.4364L35.1346 9.49797C35.8505 9.10647 36.5702 8.91353 37.2936 8.91915C38.017 8.92477 38.6882 9.11847 39.3073 9.50026C39.9226 9.87504 40.4317 10.4309 40.8347 11.1679C41.2377 11.9049 41.4329 12.6371 41.4203 13.3643C41.4038 14.0845 41.2027 14.7506 40.8171 15.3627C40.4315 15.9748 39.8807 16.4765 39.1647 16.868Z" fill="white"/>
<path d="M42.4354 6.94335L42.0813 6.05102L45.5726 4.66584L45.9266 5.55817L42.4354 6.94335ZM43.6745 10.0665L43.3205 9.17418L46.7002 7.83325L47.0542 8.72559L43.6745 10.0665ZM41.5571 6.25902L42.5052 5.88285L45.603 13.6908L44.6549 14.0669L41.5571 6.25902Z" fill="white"/>
<path d="M71.6472 0.678984L72.6638 0.761512L71.9842 9.13397L70.9675 9.05144L71.6472 0.678984ZM72.1317 1.68147L72.2093 0.724617L73.9197 0.863458C74.4619 0.907473 74.9359 1.05029 75.3417 1.29192C75.7561 1.52621 76.0717 1.84078 76.2884 2.23561C76.5132 2.63109 76.6045 3.08798 76.5624 3.60627C76.521 4.1166 76.3572 4.55277 76.071 4.9148C75.7934 5.2695 75.4308 5.53303 74.9834 5.7054C74.5446 5.87044 74.0541 5.93095 73.5119 5.88693L71.8015 5.74809L71.8792 4.79124L73.5896 4.93008C74.1318 4.9741 74.581 4.87813 74.9373 4.64218C75.3015 4.40688 75.5044 4.03407 75.5458 3.52375C75.5879 3.00545 75.4478 2.60481 75.1257 2.32181C74.8121 2.03149 74.3842 1.86433 73.842 1.82031L72.1317 1.68147Z" fill="white"/>
<path d="M79.3797 1.39431L80.377 1.60832L78.6146 9.82135L77.6173 9.60734L79.3797 1.39431ZM80.0812 10.1361L78.1688 9.72567L78.3828 8.72838L80.2952 9.13877C80.7567 9.2378 81.1942 9.25804 81.6077 9.19949C82.0229 9.13312 82.3959 8.99634 82.7267 8.78914C83.0592 8.57412 83.3409 8.29092 83.5718 7.93953C83.8026 7.58815 83.9693 7.17389 84.0717 6.69675C84.174 6.21961 84.192 5.77346 84.1257 5.3583C84.0593 4.94313 83.9178 4.5732 83.7011 4.24851C83.4861 3.91599 83.202 3.63821 82.849 3.41517C82.4976 3.18431 82.0911 3.01936 81.6296 2.92033L79.7172 2.50994L79.9312 1.51264L81.8436 1.92303C82.6415 2.09424 83.3124 2.41823 83.8565 2.89499C84.4006 3.37176 84.7823 3.95688 85.0017 4.65034C85.2228 5.33598 85.2452 6.08946 85.0689 6.91076C84.8927 7.73206 84.5623 8.41392 84.0777 8.95632C83.5948 9.49089 83.0074 9.86397 82.3157 10.0755C81.6239 10.2871 80.8791 10.3073 80.0812 10.1361Z" fill="white"/>
<path d="M89.2925 4.82076L89.6094 3.91457L93.1549 5.15447L92.838 6.06066L89.2925 4.82076ZM88.1834 7.9924L88.5003 7.08622L91.9324 8.2865L91.6155 9.19269L88.1834 7.9924ZM89.077 3.72839L90.0399 4.0651L87.2669 11.9942L86.3041 11.6575L89.077 3.72839Z" fill="white"/>
<path d="M112.722 16.7297L113.474 17.4188L107.799 23.6118L107.047 22.9226L112.722 16.7297ZM112.489 17.8185L113.138 17.1107L114.403 18.2701C114.804 18.6376 115.09 19.0413 115.263 19.4811C115.446 19.9204 115.502 20.3624 115.431 20.8072C115.366 21.2573 115.157 21.6741 114.806 22.0575C114.46 22.435 114.063 22.6788 113.615 22.7889C113.178 22.8986 112.73 22.8842 112.271 22.7456C111.823 22.6066 111.399 22.3534 110.998 21.9858L109.733 20.8265L110.381 20.1187L111.646 21.2781C112.047 21.6456 112.461 21.8456 112.887 21.8779C113.319 21.9157 113.708 21.7458 114.054 21.3684C114.405 20.985 114.541 20.5827 114.46 20.1616C114.391 19.7399 114.155 19.3454 113.754 18.9778L112.489 17.8185Z" fill="white"/>
<path d="M118.783 22.4767L119.436 23.2605L112.981 28.6366L112.329 27.8528L118.783 22.4767ZM113.941 29.7891L112.69 28.2862L113.473 27.6334L114.725 29.1363C115.027 29.499 115.359 29.7848 115.721 29.9939C116.088 30.1978 116.466 30.3203 116.854 30.3613C117.249 30.3973 117.645 30.3482 118.044 30.2141C118.442 30.08 118.829 29.8568 119.204 29.5445C119.579 29.2321 119.868 28.8921 120.072 28.5245C120.276 28.1568 120.393 27.7783 120.423 27.3891C120.459 26.9948 120.406 26.6009 120.266 26.2076C120.132 25.8091 119.914 25.4285 119.612 25.0658L118.36 23.5629L119.144 22.9101L120.396 24.413C120.918 25.04 121.246 25.7089 121.38 26.4198C121.514 27.1307 121.454 27.8267 121.198 28.5078C120.949 29.1838 120.502 29.7906 119.857 30.3282C119.211 30.8658 118.53 31.1986 117.814 31.3264C117.105 31.4492 116.412 31.3804 115.737 31.1201C115.062 30.8598 114.464 30.4161 113.941 29.7891Z" fill="white"/>
<path d="M124.263 31.0218L125.069 30.5005L127.109 33.6546L126.303 34.1759L124.263 31.0218ZM121.442 32.8463L122.248 32.325L124.222 35.3783L123.416 35.8996L121.442 32.8463ZM124.763 30.0269L125.317 30.8835L118.263 35.4446L117.709 34.5881L124.763 30.0269Z" fill="white"/>
</svg>
