<svg width="24" height="24" viewBox="0 0 24 24" fill="none" xmlns="http://www.w3.org/2000/svg">
<path d="M15.4571 9.76012C14.524 10.6932 13.283 11.2065 11.9638 11.2065C11.9615 11.2065 11.9615 11.2065 11.9615 11.2065C10.6423 11.2065 9.40125 10.6932 8.4682 9.76012C7.53516 8.82487 7.02178 7.58601 7.01953 6.26461C7.01953 4.9454 7.53516 3.70434 8.4682 2.76904C10.3521 0.885089 16.37 1.27349 16.6245 1.29135C16.7918 1.30251 16.9236 1.43643 16.9347 1.60162C16.9526 1.85835 17.341 7.87401 15.4571 9.76012Z" fill="#98A4B2"/>
<path d="M4.22852 19.1013V21.0161C4.22852 21.9741 5.008 22.7535 5.96608 22.7535H18.0336C18.9916 22.7535 19.7711 21.9741 19.7711 21.0161V19.1013C19.7711 18.3931 19.6441 17.7013 19.3931 17.0452C19.3271 16.8722 19.1335 16.7862 18.9607 16.8521C18.788 16.918 18.7015 17.1116 18.7675 17.2844C18.9892 17.8639 19.1015 18.4752 19.1015 19.1014V21.0161C19.1015 21.6049 18.6224 22.0839 18.0336 22.0839H5.96608C5.37733 22.0839 4.89817 21.6049 4.89817 21.0161V19.1014C4.89817 16.9709 6.24203 15.0485 8.24223 14.3179C8.93195 14.0657 9.72606 13.9909 10.54 14.1023C11.5436 14.2391 12.4698 14.2472 13.3701 14.1264C14.4175 13.9856 15.4017 14.1192 16.2172 14.512C16.7987 14.7923 17.3162 15.1761 17.7553 15.6526C17.8806 15.7886 18.0927 15.7972 18.2285 15.6719C18.3646 15.5467 18.373 15.3348 18.2479 15.1988C17.7514 14.6599 17.1661 14.226 16.508 13.9089C15.5744 13.4589 14.4589 13.3048 13.2812 13.4627C12.4413 13.5757 11.574 13.5677 10.6307 13.4388C9.70998 13.3133 8.8045 13.3997 8.01255 13.689C5.74919 14.5157 4.22852 16.6908 4.22852 19.1013Z" fill="#98A4B2"/>
</svg>
