<svg width="164" height="54" viewBox="0 0 164 54" fill="none" xmlns="http://www.w3.org/2000/svg">
<path d="M160.268 44.5355L161.007 43.7964L164 46.807L161.007 49.8176L160.268 49.0784L162.197 46.807L160.268 44.5355ZM157.727 44.6437L158.484 43.9046L161.332 46.807L158.484 49.6914L157.727 48.9523L159.529 46.807L157.727 44.6437Z" fill="#1E1E1E"/>
<path d="M147.928 41.9575H155.499V50.6287H156.743V53.9999H155.571L155.427 51.9267H146.125L145.963 53.9999H144.791V50.6287H146.107L147.928 41.9575ZM149.063 43.2194L147.621 50.6287H154.093V43.2194H149.063Z" fill="#1E1E1E"/>
<path d="M133.219 41.9575H134.625V46.1038H141.781V41.9575H143.206V51.9267H141.781V47.4018H134.625V51.9267H133.219V41.9575Z" fill="#1E1E1E"/>
<path d="M122.251 41.9575H131.048V43.2375H123.657V46.176H130.291V47.4559H123.657V50.6287H131.318V51.9267H122.251V41.9575Z" fill="#1E1E1E"/>
<path d="M112.53 41.9575H120.191V51.9267H118.785V43.2555H113.702L112.53 49.511C112.386 50.3043 112.067 50.9052 111.575 51.3138C111.082 51.7224 110.451 51.9267 109.682 51.9267H108.853V50.5566H109.574C110.475 50.5566 110.992 50.16 111.124 49.3668L112.53 41.9575Z" fill="#1E1E1E"/>
<path d="M108.138 44.0667L107.003 44.7337C106.137 43.592 104.888 43.0211 103.253 43.0211C102.027 43.0211 101.048 43.3817 100.315 44.1028C99.5817 44.8119 99.2151 45.7553 99.2151 46.9331C99.2151 48.0869 99.5877 49.0363 100.333 49.7814C101.09 50.5266 102.063 50.8991 103.253 50.8991C104.852 50.8991 106.101 50.3163 107.003 49.1505L108.156 49.8175C107.051 51.3919 105.434 52.1791 103.307 52.1791C101.685 52.1791 100.357 51.7044 99.3233 50.7549C98.3018 49.8055 97.791 48.5315 97.791 46.9331C97.791 45.3467 98.3078 44.0847 99.3413 43.1473C100.387 42.1979 101.709 41.7231 103.307 41.7231C105.458 41.7231 107.069 42.5043 108.138 44.0667Z" fill="#1E1E1E"/>
<path d="M86.0742 41.9575H87.4803V46.1038H94.6369V41.9575H96.061V51.9267H94.6369V47.4018H87.4803V51.9267H86.0742V41.9575Z" fill="#1E1E1E"/>
<path d="M77.7381 43.2375L75.2864 49.0063H81.5958L79.2163 43.2375H77.7381ZM76.8728 41.9575H80.1356L84.3719 51.9267H82.8937L82.1907 50.3043H74.7456L74.0426 51.9267H72.5283L76.8728 41.9575Z" fill="#1E1E1E"/>
<path d="M62.1318 41.9575H67.9365C69.0782 41.9575 70.0336 42.3121 70.8027 43.0211C71.5719 43.7182 71.9564 44.6256 71.9564 45.7433C71.9564 46.873 71.5719 47.7864 70.8027 48.4835C70.0336 49.1685 69.0782 49.511 67.9365 49.511H63.5379V51.9267H62.1318V41.9575ZM63.5379 43.2555V48.2131H67.9184C68.7116 48.2131 69.3486 47.9967 69.8293 47.5641C70.31 47.1194 70.5503 46.5125 70.5503 45.7433C70.5503 44.9861 70.304 44.3852 69.8112 43.9405C69.3305 43.4838 68.6996 43.2555 67.9184 43.2555H63.5379Z" fill="#1E1E1E"/>
<path d="M50.3086 41.9575H60.5658V43.2555H56.1493V51.9267H54.7252V43.2555H50.3086V41.9575Z" fill="#1E1E1E"/>
<path d="M46.0438 43.7964L46.8009 44.5355L44.872 46.807L46.8009 49.0784L46.0438 49.8176L43.0693 46.807L46.0438 43.7964ZM48.5855 43.9046L49.3427 44.6437L47.522 46.807L49.3427 48.9523L48.5855 49.6914L45.7193 46.807L48.5855 43.9046Z" fill="#1E1E1E"/>
<path d="M26.5448 46.9511C26.5568 48.177 26.9474 49.1445 27.7165 49.8535C28.4977 50.5626 29.4891 50.9172 30.6909 50.9172C31.8807 50.9172 32.8662 50.5626 33.6473 49.8535C34.4285 49.1324 34.8191 48.165 34.8191 46.9511C34.8191 45.7373 34.4285 44.7758 33.6473 44.0667C32.8662 43.3456 31.8807 42.9851 30.6909 42.9851C29.4891 42.9851 28.4977 43.3396 27.7165 44.0487C26.9474 44.7578 26.5568 45.7252 26.5448 46.9511ZM34.6568 43.1834C35.7144 44.1448 36.2432 45.4008 36.2432 46.9511C36.2432 48.5015 35.7144 49.7634 34.6568 50.7369C33.6113 51.6984 32.2893 52.1791 30.6909 52.1791C29.0925 52.1791 27.7646 51.6984 26.707 50.7369C25.6614 49.7634 25.1387 48.5015 25.1387 46.9511C25.1387 45.4008 25.6614 44.1448 26.707 43.1834C27.7646 42.2099 29.0925 41.7231 30.6909 41.7231C32.2893 41.7231 33.6113 42.2099 34.6568 43.1834Z" fill="#1E1E1E"/>
<path d="M13.9754 46.9511C13.9874 48.177 14.378 49.1445 15.1472 49.8535C15.9283 50.5626 16.9198 50.9172 18.1216 50.9172C19.3114 50.9172 20.2968 50.5626 21.078 49.8535C21.8591 49.1324 22.2497 48.165 22.2497 46.9511C22.2497 45.7373 21.8591 44.7758 21.078 44.0667C20.2968 43.3456 19.3114 42.9851 18.1216 42.9851C16.9198 42.9851 15.9283 43.3396 15.1472 44.0487C14.378 44.7578 13.9874 45.7252 13.9754 46.9511ZM22.0875 43.1834C23.145 44.1448 23.6738 45.4008 23.6738 46.9511C23.6738 48.5015 23.145 49.7634 22.0875 50.7369C21.0419 51.6984 19.72 52.1791 18.1216 52.1791C16.5232 52.1791 15.1952 51.6984 14.1377 50.7369C13.0921 49.7634 12.5693 48.5015 12.5693 46.9511C12.5693 45.4008 13.0921 44.1448 14.1377 43.1834C15.1952 42.2099 16.5232 41.7231 18.1216 41.7231C19.72 41.7231 21.0419 42.2099 22.0875 43.1834Z" fill="#1E1E1E"/>
<path d="M1.40609 46.9511C1.41811 48.177 1.80869 49.1445 2.57783 49.8535C3.35899 50.5626 4.35046 50.9172 5.55225 50.9172C6.74201 50.9172 7.72748 50.5626 8.50864 49.8535C9.2898 49.1324 9.68038 48.165 9.68038 46.9511C9.68038 45.7373 9.2898 44.7758 8.50864 44.0667C7.72748 43.3456 6.74201 42.9851 5.55225 42.9851C4.35046 42.9851 3.35899 43.3396 2.57783 44.0487C1.80869 44.7578 1.41811 45.7252 1.40609 46.9511ZM9.51814 43.1834C10.5757 44.1448 11.1045 45.4008 11.1045 46.9511C11.1045 48.5015 10.5757 49.7634 9.51814 50.7369C8.47258 51.6984 7.15062 52.1791 5.55225 52.1791C3.95387 52.1791 2.6259 51.6984 1.56833 50.7369C0.522777 49.7634 0 48.5015 0 46.9511C0 45.4008 0.522777 44.1448 1.56833 43.1834C2.6259 42.2099 3.95387 41.7231 5.55225 41.7231C7.15062 41.7231 8.47258 42.2099 9.51814 43.1834Z" fill="#1E1E1E"/>
<path d="M95.4036 0C101.72 -4.85599e-06 106.044 2.12825 107.421 3.38016C106.644 2.87939 103.153 1.45496 95.4036 1.45496C82.6346 1.45496 77.3768 12.047 66.1101 12.7695C60.3665 13.1377 50.3443 11.1271 44.3277 10.8249C37.9432 10.5042 34.7298 12.7695 32.6854 14.2718C34.1876 12.8947 38.3113 10.1405 44.3277 10.1405C51.8389 10.1405 52.59 11.2672 64.2323 11.6428C75.5181 12.0068 80.7568 1.12601e-05 95.4036 0Z" fill="#18A4CF"/>
<path d="M92.3991 4.50687C89.7702 7.13588 84.5124 11.2672 77.3768 11.2672C80.7568 11.6428 87.5168 11.6428 92.3991 4.50687Z" fill="#18A4CF"/>
<path d="M51.4633 13.8962C49.3421 13.7784 45.3292 15.1481 44.7033 15.3985C47.3285 14.9609 50.3568 13.3856 57.1075 15.5971C61.6544 16.8389 67.5828 19.9054 75.3228 19.9054C84.3362 19.9054 97.2813 8.2626 110.801 8.2626C115.653 8.2626 115.769 8.78794 121.181 8.78794C122.811 8.78794 125.255 7.85677 126.95 6.76031C126.074 7.01069 124.394 7.58467 122.287 7.85677C119.144 8.2626 114.557 6.76031 110.801 6.76031C93.5258 6.76031 85.3326 19.1542 73.9968 19.1542C67.9878 19.1542 58.2233 14.2718 51.4633 13.8962Z" fill="#18A4CF"/>
<path d="M25.5498 25.1634C25.9254 25.1634 27.4276 26.2901 32.3098 25.9145C37.5677 25.5101 42.0743 19.9054 51.4633 19.9054C60.4767 19.9054 72.8694 26.8294 80.3812 26.8294C85.1788 26.8294 88.2009 25.8386 89.1281 25.3407C89.226 25.2785 89.315 25.2191 89.3946 25.1634C89.3482 25.2099 89.259 25.2703 89.1281 25.3407C87.6876 26.2557 84.3198 27.7924 80.3812 27.7924C73.2456 27.7924 60.1086 21.534 51.4633 21.0321C43.9521 20.596 36.441 26.8294 32.3098 26.8294C29.0049 26.8294 26.4261 26.0397 25.5498 25.1634Z" fill="#18A4CF"/>
<path d="M117.282 14.8406C113.319 14.4894 108.673 16.7756 107.421 17.6519C109.076 16.9357 113.149 15.1836 117.282 15.5389C122.171 15.9593 125.488 18.2743 128.077 19.9054C126.07 18.1579 122.171 15.2737 117.282 14.8406Z" fill="#18A4CF"/>
<ellipse cx="51.4634" cy="28.9192" rx="5.63337" ry="5.63359" fill="#18A4CF"/>
<ellipse cx="106.295" cy="27.4168" rx="5.63337" ry="5.63359" fill="#18A4CF"/>
</svg>
