<svg width="60" height="60" viewBox="0 0 60 60" fill="none" xmlns="http://www.w3.org/2000/svg">
<g clip-path="url(#clip0_1_8678)">
<path d="M48.75 4.125H12.2812C11.3437 4.125 10.5 4.875 10.5 5.90625V7.40625H9.5625H7.6875C6.46875 7.40625 5.4375 8.4375 5.4375 9.65625V47.25V47.3438V47.4375V47.5312C5.4375 47.5312 5.4375 47.625 5.53125 47.625L5.625 47.7188L17.7187 60L17.8125 60.0937C17.8125 60.0937 17.9062 60.1875 18 60.1875H18.1875H44.7187C45.9375 60.1875 46.875 59.1562 46.875 57.9375V56.25V55.3125H48.75C49.6875 55.3125 50.5312 54.5625 50.5312 53.5312V5.90625C50.5312 4.875 49.6875 4.125 48.75 4.125ZM45.9375 57.75C45.9375 58.4062 45.375 59.0625 44.7187 59.0625H18.6562V49.4062C18.6562 47.9062 17.4375 46.6875 15.9375 46.6875H6.375V9.5625C6.375 8.8125 6.9375 8.25 7.6875 8.25H44.7187C45.375 8.25 45.9375 8.8125 45.9375 9.5625V57.75Z" fill="url(#paint0_linear_1_8678)"/>
<path d="M52.6875 0H16.3125C15.2812 0 14.4375 0.84375 14.4375 1.875V3.1875H48.75C50.25 3.1875 51.4687 4.40625 51.4687 5.90625V51.0938H52.6875C53.7188 51.0938 54.5625 50.25 54.5625 49.2188V1.875C54.5625 0.84375 53.7188 0 52.6875 0Z" fill="url(#paint1_linear_1_8678)"/>
<path d="M39.8437 14.4375H12.6562C12.2812 14.4375 12 14.7188 12 15.0938C12 15.4688 12.2812 15.75 12.6562 15.75H39.8437C40.2187 15.75 40.5 15.4688 40.5 15.0938C40.5 14.7188 40.125 14.4375 39.8437 14.4375Z" fill="url(#paint2_linear_1_8678)"/>
<path d="M39.8437 20.1562H12.6562C12.2812 20.1562 12 20.4375 12 20.8125C12 21.1875 12.2812 21.4687 12.6562 21.4687H39.8437C40.2187 21.4687 40.5 21.1875 40.5 20.8125C40.5 20.4375 40.125 20.1562 39.8437 20.1562Z" fill="url(#paint3_linear_1_8678)"/>
<path d="M39.8437 25.875H12.6562C12.2812 25.875 12 26.1562 12 26.5312C12 26.9062 12.2812 27.1875 12.6562 27.1875H39.8437C40.2187 27.1875 40.5 26.9062 40.5 26.5312C40.5 26.1562 40.125 25.875 39.8437 25.875Z" fill="url(#paint4_linear_1_8678)"/>
<path d="M39.8437 31.2188H12.6562C12.2812 31.2188 12 31.5 12 31.875C12 32.25 12.2812 32.5313 12.6562 32.5313H39.8437C40.2187 32.5313 40.5 32.25 40.5 31.875C40.5 31.5 40.125 31.2188 39.8437 31.2188Z" fill="url(#paint5_linear_1_8678)"/>
<path d="M39.8437 36.75H12.6562C12.2812 36.75 12 37.0313 12 37.4063C12 37.7813 12.2812 38.0625 12.6562 38.0625H39.8437C40.2187 38.0625 40.5 37.7813 40.5 37.4063C40.5 37.0313 40.125 36.75 39.8437 36.75Z" fill="url(#paint6_linear_1_8678)"/>
<path d="M39.8437 41.625H12.6562C12.2812 41.625 12 41.9062 12 42.2812C12 42.6562 12.2812 42.9375 12.6562 42.9375H39.8437C40.2187 42.9375 40.5 42.6562 40.5 42.2812C40.5 41.9062 40.125 41.625 39.8437 41.625Z" fill="url(#paint7_linear_1_8678)"/>
</g>
<defs>
<linearGradient id="paint0_linear_1_8678" x1="27.9844" y1="4.125" x2="27.9844" y2="60.1875" gradientUnits="userSpaceOnUse">
<stop stop-color="#414B57"/>
<stop offset="1" stop-color="#41464C"/>
</linearGradient>
<linearGradient id="paint1_linear_1_8678" x1="34.5" y1="0" x2="34.5" y2="51.0938" gradientUnits="userSpaceOnUse">
<stop stop-color="#414B57"/>
<stop offset="1" stop-color="#41464C"/>
</linearGradient>
<linearGradient id="paint2_linear_1_8678" x1="26.25" y1="14.4375" x2="26.25" y2="15.75" gradientUnits="userSpaceOnUse">
<stop stop-color="#414B57"/>
<stop offset="1" stop-color="#41464C"/>
</linearGradient>
<linearGradient id="paint3_linear_1_8678" x1="26.25" y1="20.1562" x2="26.25" y2="21.4687" gradientUnits="userSpaceOnUse">
<stop stop-color="#414B57"/>
<stop offset="1" stop-color="#41464C"/>
</linearGradient>
<linearGradient id="paint4_linear_1_8678" x1="26.25" y1="25.875" x2="26.25" y2="27.1875" gradientUnits="userSpaceOnUse">
<stop stop-color="#414B57"/>
<stop offset="1" stop-color="#41464C"/>
</linearGradient>
<linearGradient id="paint5_linear_1_8678" x1="26.25" y1="31.2188" x2="26.25" y2="32.5313" gradientUnits="userSpaceOnUse">
<stop stop-color="#414B57"/>
<stop offset="1" stop-color="#41464C"/>
</linearGradient>
<linearGradient id="paint6_linear_1_8678" x1="26.25" y1="36.75" x2="26.25" y2="38.0625" gradientUnits="userSpaceOnUse">
<stop stop-color="#414B57"/>
<stop offset="1" stop-color="#41464C"/>
</linearGradient>
<linearGradient id="paint7_linear_1_8678" x1="26.25" y1="41.625" x2="26.25" y2="42.9375" gradientUnits="userSpaceOnUse">
<stop stop-color="#414B57"/>
<stop offset="1" stop-color="#41464C"/>
</linearGradient>
<clipPath id="clip0_1_8678">
<rect width="60" height="60" fill="white"/>
</clipPath>
</defs>
</svg>
