<svg width="34" height="34" viewBox="0 0 34 34" fill="none" xmlns="http://www.w3.org/2000/svg">
<path d="M10.66 21.6959C10.8419 21.512 10.9318 21.2302 10.9318 20.8523V20.7484C10.9318 20.3705 10.8419 20.0907 10.66 19.9107C10.4801 19.7288 10.2301 19.6409 9.90833 19.6409H8.84277V21.9699H9.90833C10.2301 21.9699 10.48 21.8779 10.66 21.6959Z" fill="#98A4B2"/>
<path d="M15.3044 24.037C15.4843 23.8571 15.5743 23.5772 15.5743 23.1994V20.7484C15.5743 20.3705 15.4843 20.0907 15.3044 19.9107C15.1224 19.7288 14.8725 19.6409 14.5507 19.6409H13.5371V24.3069H14.5507C14.8725 24.3069 15.1224 24.219 15.3044 24.037Z" fill="#98A4B2"/>
<path d="M32.3861 10.8986L23.072 0.990781C22.9561 0.866801 22.7941 0.796875 22.6243 0.796875H9.93164C7.89948 0.796875 6.24722 2.45019 6.24722 4.48129V15.4227H2.65073C1.987 15.4227 1.44824 15.9624 1.44824 16.6261V27.3836C1.44824 28.0453 1.987 28.585 2.65073 28.585H6.24722V29.5186C6.24722 31.5498 7.89954 33.2031 9.93164 33.2031H28.8676C30.8997 33.2031 32.552 31.5497 32.552 29.5186V11.3184C32.552 11.1625 32.493 11.0125 32.3861 10.8986ZM31.3245 29.5187C31.3245 30.8741 30.222 31.9757 28.8676 31.9757H9.93164C8.57722 31.9757 7.47468 30.8741 7.47468 29.5187V28.5851H26.3886C27.0514 28.5851 27.5901 28.0454 27.5901 27.3836V16.6261C27.5901 15.9624 27.0514 15.4227 26.3886 15.4227H7.47468V4.48129C7.47468 3.12588 8.57722 2.02433 9.93164 2.02433H22.0005V9.26726C22.0005 10.7346 23.194 11.9282 24.6614 11.9282H31.3246L31.3245 29.5187ZM7.93148 24.8147V19.1251C7.93148 19.0432 7.96349 18.9752 8.02943 18.9172C8.09537 18.8612 8.18137 18.8312 8.2833 18.8312H9.96059C10.3104 18.8312 10.6283 18.8932 10.9142 19.0172C11.2021 19.1411 11.428 19.341 11.5939 19.6169C11.7599 19.8968 11.8438 20.2646 11.8438 20.7244V20.7924C11.8438 21.2502 11.7578 21.62 11.5859 21.8959C11.414 22.1758 11.1821 22.3757 10.8882 22.5037C10.5963 22.6276 10.2704 22.6916 9.9086 22.6916H8.84304V24.8147C8.84304 24.9186 8.79503 24.9946 8.70113 25.0426C8.60517 25.0926 8.50125 25.1166 8.3873 25.1166C8.27135 25.1166 8.16736 25.0926 8.07346 25.0426C7.97943 24.9946 7.93148 24.9186 7.93148 24.8147ZM12.6255 24.8246V19.1251C12.6255 19.0431 12.6615 18.9751 12.7374 18.9172C12.8114 18.8612 12.9094 18.8312 13.0293 18.8312H14.5507C14.9125 18.8312 15.2404 18.8931 15.5363 19.0211C15.8301 19.147 16.0621 19.3489 16.232 19.6308C16.4019 19.9127 16.4859 20.2845 16.4859 20.7484V23.1994C16.4859 23.6631 16.4019 24.035 16.232 24.3169C16.0621 24.5988 15.8302 24.8027 15.5363 24.9267C15.2404 25.0546 14.9125 25.1166 14.5507 25.1166H13.0293C12.9094 25.1166 12.8114 25.0866 12.7374 25.0306C12.6615 24.9746 12.6255 24.9047 12.6255 24.8246ZM19.7964 21.6081C19.8944 21.6081 19.9683 21.646 20.0164 21.72C20.0644 21.796 20.0903 21.8799 20.0903 21.9779C20.0903 22.0599 20.0664 22.1379 20.0203 22.2158C19.9744 22.2918 19.9004 22.3318 19.7964 22.3318H18.465V24.8147C18.465 24.9186 18.417 24.9946 18.3231 25.0426C18.2271 25.0926 18.1232 25.1166 18.0092 25.1166C17.8933 25.1166 17.7893 25.0926 17.6954 25.0426C17.6014 24.9946 17.5535 24.9186 17.5535 24.8147V19.1331C17.5535 19.0352 17.5955 18.9612 17.6814 18.9092C17.7674 18.8572 17.8594 18.8312 17.9573 18.8312H20.976C21.0779 18.8312 21.1519 18.8732 21.1979 18.9612C21.2439 19.0451 21.2679 19.1351 21.2679 19.2271C21.2679 19.337 21.2439 19.433 21.1939 19.5149C21.1459 19.5969 21.072 19.6409 20.9761 19.6409H18.4651V21.6081H19.7964Z" fill="#98A4B2"/>
</svg>
