<svg width="95" height="23" viewBox="0 0 95 23" fill="none" xmlns="http://www.w3.org/2000/svg">
<g clip-path="url(#clip0_1_7750)">
<path fill-rule="evenodd" clip-rule="evenodd" d="M35.469 5.19208H34.1393C31.7252 5.19208 30.4543 6.4323 30.4543 8.2716C30.4543 10.3561 31.3349 11.3196 33.1447 12.5633L34.6332 13.5793L30.3334 20.0957H27.1318L30.9861 14.266C28.762 12.6544 27.5152 11.0954 27.5152 8.43626C27.5152 5.11151 29.7877 2.8623 34.1082 2.8623H38.4081V20.0957H35.4586V5.19208H35.469ZM50.565 7.62346V20.0922H47.6604V14.8896H43.7751V20.0922H40.8705V7.62346H43.7751V12.5598H47.6604V7.62346H50.565ZM63.6889 22.9369H60.9985V20.0816H54.4711V22.9369H51.7807V17.7589H52.6924C53.7147 15.6743 53.9185 11.733 53.9185 8.685V7.61646H62.3972V17.7554H63.6923V22.9334L63.6889 22.9369ZM59.4892 9.95324H56.412V10.3211C56.412 12.4757 56.191 15.874 55.3794 17.7624H59.4858V9.95324H59.4892ZM70.2129 20.3304C66.5002 20.3304 64.3969 18.2248 64.3969 13.8841C64.3969 10.1179 66.0857 7.36771 69.6292 7.36771C72.5337 7.36771 74.416 9.00732 74.416 13.3411V14.9001H67.405C67.5259 16.9846 68.3341 18.0006 70.4615 18.0006C71.8775 18.0006 73.3937 17.4576 74.2951 16.8305V19.2408C73.4455 19.8364 72.0779 20.3269 70.2163 20.3269L70.2129 20.3304ZM67.4016 12.7245H71.4596V12.4792C71.4596 10.9202 71.0176 9.708 69.5774 9.708C68.1925 9.69399 67.4845 10.7415 67.405 12.7245H67.4016ZM79.2787 13.9682V20.0957H76.3638V7.62346H79.2787V13.3691L83.3921 7.62346H86.3277L82.2213 13.3691L86.8837 20.0816H83.5786L79.2787 13.9647V13.9682ZM86.7145 13.8666C86.7145 18.0321 88.5967 20.3304 92.4856 20.3409C93.829 20.3409 94.7822 20.0957 95.4902 19.5702V17.1668C94.7615 17.6923 93.8808 18.0076 92.6582 18.0076C90.5826 18.0076 89.7226 16.368 89.7226 13.7895C89.7226 11.0813 90.776 9.69399 92.6755 9.69399C93.798 9.69399 94.9031 10.0934 95.4902 10.4647V7.95979C94.8824 7.61295 93.8049 7.36421 92.3647 7.36421C88.6485 7.36421 86.7179 10.0618 86.7179 13.8596L86.7145 13.8666Z" fill="#717D8A"/>
<path fill-rule="evenodd" clip-rule="evenodd" d="M9.06587 0C4.05806 0 0 4.12353 0 9.2035C0 11.6384 0.953215 13.9787 2.65242 15.7059C4.29636 17.3735 8.16102 19.7839 8.38896 22.3133C8.4235 22.6917 8.69288 23 9.06587 23C9.43887 23 9.71171 22.6917 9.74279 22.3133C9.97074 19.7803 13.8354 17.3735 15.4759 15.7094C17.1751 13.9857 18.1317 11.6419 18.1317 9.2035C18.1352 4.12353 14.0737 0 9.06587 0Z" fill="#FF4433"/>
<path opacity="0.25" fill-rule="evenodd" clip-rule="evenodd" d="M9.06559 12.43C10.8235 12.43 12.2499 10.9831 12.2499 9.19989C12.2499 7.41664 10.8235 5.96973 9.06559 5.96973C7.30767 5.96973 5.88477 7.41664 5.88477 9.19989C5.88477 10.9831 7.31113 12.4265 9.06559 12.4265V12.43Z" fill="black"/>
</g>
<defs>
<clipPath id="clip0_1_7750">
<rect width="95" height="23" fill="white"/>
</clipPath>
</defs>
</svg>
