<svg aria-hidden="true" xmlns="http://www.w3.org/2000/svg" xmlns:xlink="http://www.w3.org/1999/xlink"><symbol viewBox="0 0 16 8" fill="none" id="icon-arrow" xmlns="http://www.w3.org/2000/svg">
<path d="M2.51401e-07 0.988406C2.51401e-07 1.2498 0.115728 1.4989 0.329651 1.68342L7.20322 7.714C7.64158 8.09533 8.34647 8.09533 8.78484 7.714L15.6619 1.68342C16.1038 1.30516 16.1143 0.683955 15.683 0.296472C15.2516 -0.0910103 14.5432 -0.100236 14.1013 0.278021C14.0943 0.284171 14.0873 0.290322 14.0803 0.296472L7.99578 5.63205L1.91127 0.296472C1.47291 -0.0879351 0.764509 -0.0848598 0.329651 0.296472C0.119235 0.480988 2.51401e-07 0.730084 2.51401e-07 0.988406ZM15.7811 0.988406C15.7811 1.2006 15.6865 1.40357 15.5146 1.55425L8.63755 7.58484C8.28335 7.89544 7.70471 7.89544 7.35051 7.58484L0.473435 1.55425C0.13677 1.2252 0.164825 0.720858 0.540066 0.425633C0.887251 0.151935 1.41329 0.151935 1.76047 0.425633L7.99578 5.89037L14.2276 0.425633C14.5853 0.115032 15.1604 0.115032 15.5181 0.428709C15.6865 0.576321 15.7811 0.779288 15.7811 0.988406Z" fill="currentColor"/>
<path d="M15.3078 0.689824C15.5042 0.862038 15.5042 1.13881 15.3078 1.31103L8.35005 7.41234C8.15367 7.58456 7.83804 7.58456 7.64166 7.41234L0.683923 1.31103C0.487536 1.13881 0.487536 0.862038 0.683923 0.689824C0.880311 0.517609 1.19593 0.517609 1.39232 0.689824L7.99586 6.48054L14.5994 0.689824C14.7958 0.517609 15.1114 0.517609 15.3078 0.689824Z" fill="currentColor"/>
</symbol><symbol viewBox="0 0 20 20" fill="none" id="icon-arrow-double" xmlns="http://www.w3.org/2000/svg">
<path d="M1.24609 18.9259C1.57812 18.9259 1.89453 18.797 2.12891 18.5626L9.78516 10.9024C10.2734 10.4181 10.2734 9.629 9.78516 9.14072L2.12891 1.48447C1.63672 1.004 0.847656 1.01181 0.367188 1.50791C-0.105469 1.99228 -0.105469 2.76572 0.367188 3.25009L7.14453 10.0235L0.367188 16.8009C-0.121094 17.2892 -0.117188 18.0782 0.367188 18.5626C0.597656 18.797 0.914062 18.9259 1.24609 18.9259ZM1.24609 1.35166C1.51562 1.35166 1.77344 1.45713 1.96484 1.64853L9.62109 9.30478C10.0156 9.69931 10.0156 10.3438 9.62109 10.7384L1.96484 18.3985C1.54688 18.7735 0.90625 18.7423 0.53125 18.3243C0.183594 17.9376 0.183594 17.3517 0.53125 16.9649L7.46875 10.0235L0.527344 3.08213C0.132812 2.68369 0.132812 2.04306 0.53125 1.64463C0.722656 1.45712 0.980469 1.35166 1.24609 1.35166Z" fill="currentColor"/>
<path d="M8.10547 10.0236L0.75 2.66809C0.527344 2.45324 0.51953 2.10168 0.734374 1.87902C0.949218 1.65637 1.30078 1.64856 1.52344 1.8634C1.53125 1.86731 1.53516 1.87512 1.53906 1.87902L9.28516 9.62902C9.50391 9.84777 9.50391 10.1993 9.28516 10.4181L1.53516 18.1681C1.31641 18.3868 0.964844 18.3868 0.746094 18.1681C0.527344 17.9493 0.527344 17.5978 0.746094 17.379L8.10547 10.0236Z" fill="currentColor"/>
<path d="M11.0938 18.8829C11.4258 18.8829 11.7422 18.754 11.9766 18.5157L19.6367 10.8595C20.1211 10.3712 20.1211 9.58606 19.6367 9.09777L11.9766 1.43762C11.4961 0.945432 10.707 0.933713 10.2148 1.41418C9.72266 1.89465 9.71094 2.68371 10.1914 3.1759C10.1992 3.18371 10.207 3.19153 10.2148 3.19934L16.9922 9.97668L10.2148 16.754C9.72656 17.2423 9.73047 18.0314 10.2148 18.5157C10.4492 18.7501 10.7656 18.8829 11.0938 18.8829ZM11.0938 1.30481C11.3633 1.30481 11.6211 1.41028 11.8125 1.60168L19.4727 9.26184C19.8672 9.65637 19.8672 10.3009 19.4727 10.6954L11.8125 18.3556C11.3945 18.7306 10.7539 18.6993 10.3789 18.2814C10.0312 17.8946 10.0312 17.3087 10.3789 16.922L17.3203 9.97668L10.3789 3.03528C9.98438 2.63684 9.98438 1.99621 10.3828 1.59778C10.5703 1.41028 10.8281 1.30481 11.0938 1.30481Z" fill="currentColor"/>
<path d="M10.7148 1.83203C10.9336 1.61328 11.2852 1.61328 11.5039 1.83203L19.2539 9.58203C19.4727 9.80078 19.4727 10.1523 19.2539 10.3711L11.5039 18.1211C11.2852 18.3398 10.9336 18.3398 10.7148 18.1211C10.4961 17.9023 10.4961 17.5508 10.7148 17.332L18.0703 9.97656L10.7148 2.62109C10.4961 2.40234 10.4961 2.05078 10.7148 1.83203Z" fill="currentColor"/>
</symbol><symbol viewBox="0 0 24 24" fill="none" id="icon-close" xmlns="http://www.w3.org/2000/svg">
<path d="M22 2L2 22M2 2L22 22" stroke="currentColor" stroke-width="3" stroke-linecap="round" stroke-linejoin="round"/>
<path d="M22 2L2 22M2 2L22 22" stroke="currentColor" stroke-width="2.6" stroke-linecap="round" stroke-linejoin="round"/>
<path d="M22 2L2 22M2 2L22 22" stroke="currentColor" stroke-width="2" stroke-linecap="round" stroke-linejoin="round"/>
</symbol><symbol viewBox="0 0 28 28" fill="none" id="icon-download" xmlns="http://www.w3.org/2000/svg">
<g clip-path="url(#dclip0_1_4150)">
<path fill-rule="evenodd" clip-rule="evenodd" d="M25.6749 18.8492C25.6748 19.0569 25.5922 19.2561 25.4454 19.403C25.2985 19.5499 25.0994 19.6326 24.8917 19.6328H21.9462C21.7319 15.435 18.2493 12.086 13.9996 12.086C9.7498 12.086 6.2673 15.435 6.05292 19.6328H3.10745C2.89977 19.6325 2.70069 19.5498 2.5539 19.4029C2.40711 19.256 2.32461 19.0568 2.32449 18.8492V1.65875C2.32459 1.45106 2.40709 1.25189 2.55388 1.10496C2.70067 0.958023 2.89976 0.87533 3.10745 0.875026H8.82399C8.97321 0.871802 9.12005 0.912665 9.24615 0.9925C9.37225 1.07233 9.472 1.18759 9.53291 1.32385L11.4496 5.38713C11.5315 5.56326 11.6623 5.71216 11.8265 5.81612C11.9906 5.92007 12.1811 5.97471 12.3753 5.97354H24.8917C25.0994 5.9738 25.2985 6.05646 25.4454 6.20339C25.5922 6.35031 25.6748 6.54949 25.6749 6.75721V18.8492ZM24.9869 5.10133V2.58674C24.9867 2.31538 24.8788 2.05518 24.687 1.86326C24.4951 1.67134 24.235 1.56337 23.9636 1.56305H10.6127L10.3241 0.951151C10.1914 0.665592 9.97949 0.424148 9.71356 0.255536C9.44763 0.0869237 9.13887 -0.00176193 8.82399 2.65254e-05H3.10745C2.66776 0.000634453 2.24626 0.175603 1.9354 0.486557C1.62454 0.797511 1.4497 1.21906 1.44922 1.65875V18.8492C1.44971 19.2888 1.62456 19.7104 1.93542 20.0213C2.24628 20.3323 2.66777 20.5072 3.10745 20.5078H6.05626C6.29798 24.6799 9.7679 28 13.9996 28C18.2312 28 21.7012 24.68 21.9424 20.5078H24.8917C25.3314 20.5072 25.7529 20.3323 26.0637 20.0213C26.3746 19.7103 26.5494 19.2888 26.5499 18.8491V6.75721C26.5495 6.334 26.3874 5.92693 26.0969 5.61917C25.8064 5.31141 25.4094 5.12618 24.9869 5.10133ZM10.5232 21.4776L13.69 24.6449C13.7306 24.6856 13.7789 24.7178 13.832 24.7399C13.8851 24.7619 13.942 24.7732 13.9995 24.7732C14.057 24.7732 14.114 24.7619 14.1671 24.7399C14.2202 24.7178 14.2685 24.6856 14.3091 24.6449L17.4762 21.4776C17.5582 21.3954 17.6043 21.2841 17.6042 21.1681C17.6042 21.052 17.558 20.9407 17.4759 20.8587C17.3938 20.7767 17.2825 20.7306 17.1664 20.7307C17.0504 20.7307 16.9391 20.7769 16.857 20.859L14.4371 23.2794V15.7507C14.4371 15.6347 14.391 15.5234 14.3089 15.4414C14.2269 15.3593 14.1156 15.3132 13.9996 15.3132C13.8835 15.3132 13.7723 15.3593 13.6902 15.4414C13.6082 15.5234 13.5621 15.6347 13.5621 15.7507V23.2794L11.1415 20.859C11.0587 20.7808 10.9487 20.7381 10.8349 20.7397C10.7211 20.7414 10.6124 20.7874 10.5319 20.8679C10.4514 20.9484 10.4055 21.0571 10.4038 21.171C10.4022 21.2848 10.445 21.3948 10.5232 21.4776Z" fill="currentColor"/>
</g>
<defs>
<clipPath id="dclip0_1_4150">
<rect width="28" height="28" fill="currentColor"/>
</clipPath>
</defs>
</symbol><symbol viewBox="0 0 22 22" fill="none" id="icon-list" xmlns="http://www.w3.org/2000/svg">
<g clip-path="url(#fclip0_1_6047)">
<path d="M21.0604 0.0224609H8.9375V22.0225H21.0833C21.6104 22.0225 22.0229 21.61 22.0229 21.0829V0.870378C22 0.389128 21.5646 0.0224609 21.0604 0.0224609ZM18.1958 17.5079H12.6958C12.1688 17.5079 11.7562 17.0954 11.7562 16.5683C11.7562 16.0412 12.1688 15.6287 12.6958 15.6287H18.1729C18.7 15.6287 19.1125 16.0412 19.1125 16.5683C19.1125 17.0954 18.7229 17.5079 18.1958 17.5079ZM18.1958 11.9162H12.6958C12.1688 11.9162 11.7562 11.5037 11.7562 10.9766C11.7562 10.4495 12.1688 10.037 12.6958 10.037H18.1729C18.7 10.037 19.1125 10.4495 19.1125 10.9766C19.1125 11.4808 18.7229 11.9162 18.1958 11.9162ZM18.1958 6.25579H12.6958C12.1688 6.25579 11.7562 5.84329 11.7562 5.31621C11.7562 4.78913 12.1688 4.37663 12.6958 4.37663H18.1729C18.7 4.37663 19.1125 4.78913 19.1125 5.31621C19.1125 5.84329 18.7229 6.25579 18.1958 6.25579Z" fill="currentColor"/>
<path d="M5.31667 14.4826C4.78958 14.4826 4.37708 14.0701 4.37708 13.543C4.37708 13.0159 4.78958 12.6034 5.31667 12.6034H7.05833V9.28047H5.27083C4.74375 9.28047 4.33125 8.86797 4.33125 8.34089C4.33125 7.8138 4.74375 7.4013 5.27083 7.4013H7.05833V3.23047H0.939583C0.4125 3.23047 0 3.64297 0 4.17005V17.7826C0 18.3096 0.4125 18.7221 0.939583 18.7221H7.05833V14.4826H5.31667Z" fill="currentColor"/>
</g>
<defs>
<clipPath id="fclip0_1_6047">
<rect width="22" height="22" fill="currentColor"/>
</clipPath>
</defs>
</symbol><symbol viewBox="0 0 24 24" fill="none" id="icon-list-pen" xmlns="http://www.w3.org/2000/svg">
<g clip-path="url(#eclip0_1_8637)">
<path d="M3.07127 4.32197H10.4768C10.6144 4.32197 10.7258 4.21046 10.7258 4.07297C10.7258 3.93549 10.6144 3.82397 10.4768 3.82397H3.07127C2.93364 3.82397 2.82227 3.93549 2.82227 4.07297C2.82227 4.21046 2.93359 4.32197 3.07127 4.32197Z" fill="currentColor"/>
<path d="M3.07127 7.46187H15.4743C15.612 7.46187 15.7233 7.35035 15.7233 7.21287C15.7233 7.07538 15.612 6.96387 15.4743 6.96387H3.07127C2.93364 6.96387 2.82227 7.07538 2.82227 7.21287C2.82227 7.35035 2.93359 7.46187 3.07127 7.46187Z" fill="currentColor"/>
<path d="M3.07127 10.602H11.1852C11.3228 10.602 11.4342 10.4905 11.4342 10.353C11.4342 10.2155 11.3228 10.104 11.1852 10.104H3.07127C2.93364 10.104 2.82227 10.2155 2.82227 10.353C2.82222 10.4905 2.93359 10.602 3.07127 10.602Z" fill="currentColor"/>
<path d="M9.57677 13.4931C9.57677 13.3556 9.46539 13.2441 9.32777 13.2441H3.07127C2.93364 13.2441 2.82227 13.3557 2.82227 13.4931C2.82227 13.6307 2.93364 13.7421 3.07127 13.7421H9.32777C9.46539 13.7421 9.57677 13.6306 9.57677 13.4931Z" fill="currentColor"/>
<path d="M23.46 7.15422L21.6845 5.37879C21.2761 4.97036 20.6137 4.97285 20.2103 5.37879L18.1311 7.45802V4.07393C18.1311 3.99672 18.0912 3.95688 18.0589 3.89711C15.7605 1.59869 14.8117 0.652473 14.4631 0.301332L14.4606 0.298848C14.4556 0.293879 14.4506 0.28891 14.4457 0.283941C14.4357 0.274004 14.4208 0.259051 14.4008 0.239082L14.4183 0.259004C14.4058 0.246535 14.3934 0.234113 14.3835 0.224129C14.3735 0.214191 14.3635 0.204207 14.3536 0.19427C14.3461 0.184285 14.3386 0.176832 14.3287 0.169379C14.3212 0.161879 14.3162 0.156957 14.3113 0.151941C14.3013 0.139473 14.2913 0.129488 14.2814 0.122035C14.2789 0.119551 14.2789 0.119551 14.2789 0.119551C14.2291 0.0697695 14.147 0.0473633 14.1046 0.0473633H1.6612C0.874312 0.0473633 0.234375 0.687301 0.234375 1.47672V22.5235C0.234375 23.3104 0.874359 23.9528 1.6612 23.9528H16.7017C17.4886 23.9528 18.1311 23.3103 18.1311 22.5235V13.9623L23.4599 8.63088C23.8684 8.2225 23.8684 7.56264 23.46 7.15422ZM17.6331 7.95602C12.1597 13.4294 10.6282 14.9609 10.2622 15.3269C10.2622 15.3269 10.1651 15.4241 10.1626 15.4265C10.1427 15.4464 10.1153 15.4863 10.1028 15.5186V15.5211L10.1003 15.5236V15.5286C10.1003 15.5311 10.0979 15.5311 10.0979 15.5311V15.536C10.0979 15.5385 10.0979 15.5385 10.0954 15.5385V15.541C10.0954 15.5435 10.0954 15.546 10.0929 15.5485C10.0929 15.551 10.0904 15.5535 10.0904 15.556V15.5584C10.0879 15.5609 10.0879 15.5609 10.0879 15.5634V15.5659C10.0854 15.5659 10.0854 15.5684 10.0854 15.5684C10.0854 15.5684 10.0854 15.5709 10.0854 15.5733C10.083 15.5758 10.083 15.5758 10.083 15.5758C10.0182 15.7651 9.76669 16.4972 8.92256 18.9599V18.9624C8.72086 19.5576 9.29358 20.1178 9.87877 19.9161L13.3177 18.7383C13.3525 18.7258 13.3949 18.6985 13.4148 18.6785L17.6331 14.4603V22.5233C17.6331 23.0363 17.2147 23.4547 16.7018 23.4547H1.6612C1.14825 23.4547 0.732375 23.0363 0.732375 22.5233V1.47668C0.732375 0.963723 1.1482 0.545363 1.6612 0.545363H13.8555V2.89357C13.8555 3.68041 14.4954 4.32293 15.2823 4.32293H17.633V7.95602H17.6331ZM12.7798 18.3948L9.71691 19.4432C9.5152 19.5129 9.32597 19.3187 9.39567 19.1219C10.1502 16.9256 10.3718 16.2757 10.4266 16.1113C10.4266 16.1113 10.4291 16.1088 10.4316 16.1014C10.4316 16.0989 10.4316 16.0989 10.4316 16.0964C10.434 16.0939 10.434 16.089 10.4365 16.084C10.4365 16.0815 10.4365 16.0815 10.4365 16.0815C10.439 16.0766 10.4415 16.0691 10.444 16.0616L12.7798 18.3948ZM23.1089 8.27979L21.814 9.57218L19.2666 7.02471L20.5615 5.72983C20.7731 5.51819 21.1392 5.53807 21.3334 5.72983L23.1089 7.5078C23.323 7.71949 23.323 8.06561 23.1089 8.27979Z" fill="currentColor"/>
</g>
<defs>
<clipPath id="eclip0_1_8637">
<rect width="24" height="24" fill="currentColor"/>
</clipPath>
</defs>
</symbol><symbol viewBox="0 0 26 42" fill="none" id="icon-play" xmlns="http://www.w3.org/2000/svg">
<path d="M25.2543 19.4881C26.1752 20.2857 26.1752 21.7143 25.2543 22.5119L3.30931 41.5167C2.01402 42.6385 0 41.7184 0 40.0049L0 1.99512C0 0.281612 2.01402 -0.638494 3.30931 0.483258L25.2543 19.4881Z" fill="currentColor"/>
</symbol><symbol viewBox="0 0 20 20" fill="none" id="icon-tel" xmlns="http://www.w3.org/2000/svg">
<g clip-path="url(#hclip0_1_8761)">
<path d="M19.375 13.75V18.75C19.375 19.0938 19.0938 19.375 18.75 19.375H12.5C5.95 19.375 0.625 14.05 0.625 7.5V1.25C0.625 0.90625 0.90625 0.625 1.25 0.625H6.25C6.59375 0.625 6.875 0.90625 6.875 1.25V6.25C6.875 6.41875 6.80625 6.575 6.69375 6.69375L5.00625 8.38125C5.1375 11.9688 8.03125 14.8687 11.6187 15L13.3063 13.3125C13.425 13.1937 13.5813 13.125 13.75 13.125H18.75C19.0938 13.125 19.375 13.4062 19.375 13.75ZM10 8.125C11.0312 8.125 11.875 8.96875 11.875 10C11.875 10.3438 12.1562 10.625 12.5 10.625C12.8438 10.625 13.125 10.3438 13.125 10C13.125 8.275 11.725 6.875 10 6.875C9.65625 6.875 9.375 7.15625 9.375 7.5C9.375 7.84375 9.65625 8.125 10 8.125ZM10 5C12.7563 5 15 7.24375 15 10C15 10.3438 15.2812 10.625 15.625 10.625C15.9688 10.625 16.25 10.3438 16.25 10C16.25 6.55625 13.4438 3.75 10 3.75C9.65625 3.75 9.375 4.03125 9.375 4.375C9.375 4.71875 9.65625 5 10 5ZM10 1.875C14.4812 1.875 18.125 5.51875 18.125 10C18.125 10.3438 18.4062 10.625 18.75 10.625C19.0938 10.625 19.375 10.3438 19.375 10C19.375 4.83125 15.1688 0.625 10 0.625C9.65625 0.625 9.375 0.90625 9.375 1.25C9.375 1.59375 9.65625 1.875 10 1.875Z" fill="currentColor"/>
</g>
<defs>
<clipPath id="hclip0_1_8761">
<rect width="20" height="20" fill="currentColor"/>
</clipPath>
</defs>
</symbol><symbol viewBox="0 0 22 22" fill="none" id="icon-tg" xmlns="http://www.w3.org/2000/svg">
<path d="M19.6772 2.51194C16.9199 3.65374 5.09775 8.55072 1.83119 9.88546C-0.359571 10.7404 0.922809 11.5418 0.922809 11.5418C0.922809 11.5418 2.79281 12.1829 4.39573 12.6638C5.99865 13.1448 6.85357 12.6104 6.85357 12.6104L14.3873 7.53432C17.0587 5.71778 16.4176 7.21378 15.7765 7.85486C14.3872 9.24416 12.0898 11.4347 10.1663 13.198C9.31141 13.946 9.73887 14.5873 10.1129 14.9078C11.5022 16.0833 15.2956 18.4877 15.5095 18.6481C16.6383 19.4471 18.8585 20.5975 19.1962 18.1671L20.5321 9.77854C20.9595 6.9467 21.387 4.32848 21.4405 3.58048C21.6006 1.76394 19.6772 2.51194 19.6772 2.51194Z" fill="currentColor"/>
</symbol><symbol viewBox="0 0 25 25" fill="none" id="icon-tg-stroke" xmlns="http://www.w3.org/2000/svg">
<path d="M21.5731 3.80548C21.5731 3.80548 23.5965 3.01642 23.4272 4.93256C23.3715 5.72162 22.8658 8.4836 22.472 11.4706L21.1231 20.3195C21.1231 20.3195 21.0106 21.6159 19.9986 21.8414C18.9871 22.0664 17.4694 21.0524 17.1882 20.8268C16.9632 20.6576 12.9725 18.1211 11.5673 16.8815C11.1736 16.543 10.7236 15.8669 11.6236 15.0779L17.5257 9.44141C18.2001 8.76433 18.8746 7.18621 16.0642 9.10287L8.19442 14.457C8.19442 14.457 7.29494 15.0211 5.60901 14.5138L1.95484 13.3862C1.95484 13.3862 0.605882 12.5409 2.91057 11.6956C8.53192 9.04662 15.446 6.34141 21.5725 3.80496" fill="currentColor"/>
</symbol><symbol viewBox="0 0 24 24" fill="none" id="icon-vk-stroke" xmlns="http://www.w3.org/2000/svg">
<g clip-path="url(#kclip0_1_7695)">
<path fill-rule="evenodd" clip-rule="evenodd" d="M23.45 5.948C23.616 5.402 23.45 5 22.655 5H20.03C19.362 5 19.054 5.347 18.887 5.73C18.887 5.73 17.552 8.926 15.661 11.002C15.049 11.604 14.771 11.795 14.437 11.795C14.27 11.795 14.019 11.604 14.019 11.057V5.948C14.019 5.292 13.835 5 13.279 5H9.151C8.734 5 8.483 5.304 8.483 5.593C8.483 6.214 9.429 6.358 9.526 8.106V11.904C9.526 12.737 9.373 12.888 9.039 12.888C8.149 12.888 5.984 9.677 4.699 6.003C4.45 5.288 4.198 5 3.527 5H0.9C0.15 5 0 5.347 0 5.73C0 6.412 0.89 9.8 4.145 14.281C6.315 17.341 9.37 19 12.153 19C13.822 19 14.028 18.632 14.028 17.997V15.684C14.028 14.947 14.186 14.8 14.715 14.8C15.105 14.8 15.772 14.992 17.33 16.467C19.11 18.216 19.403 19 20.405 19H23.03C23.78 19 24.156 18.632 23.94 17.904C23.702 17.18 22.852 16.129 21.725 14.882C21.113 14.172 20.195 13.407 19.916 13.024C19.527 12.533 19.638 12.314 19.916 11.877C19.916 11.877 23.116 7.451 23.449 5.948" fill="currentColor"/>
</g>
<defs>
<clipPath id="kclip0_1_7695">
<rect width="24" height="24" fill="currentColor"/>
</clipPath>
</defs>
</symbol><symbol viewBox="0 0 20 20" fill="none" id="icon-wh" xmlns="http://www.w3.org/2000/svg">
<path d="M10.0025 0H9.9975C4.48375 0 0 4.485 0 10C0 12.1875 0.705 14.215 1.90375 15.8612L0.6575 19.5763L4.50125 18.3475C6.0825 19.395 7.96875 20 10.0025 20C15.5162 20 20 15.5138 20 10C20 4.48625 15.5162 0 10.0025 0ZM15.8212 14.1213C15.58 14.8025 14.6225 15.3675 13.8587 15.5325C13.3363 15.6437 12.6537 15.7325 10.3562 14.78C7.4175 13.5625 5.525 10.5763 5.3775 10.3825C5.23625 10.1887 4.19 8.80125 4.19 7.36625C4.19 5.93125 4.91875 5.2325 5.2125 4.9325C5.45375 4.68625 5.8525 4.57375 6.235 4.57375C6.35875 4.57375 6.47 4.58 6.57 4.585C6.86375 4.5975 7.01125 4.615 7.205 5.07875C7.44625 5.66 8.03375 7.095 8.10375 7.2425C8.175 7.39 8.24625 7.59 8.14625 7.78375C8.0525 7.98375 7.97 8.0725 7.8225 8.2425C7.675 8.4125 7.535 8.5425 7.3875 8.725C7.2525 8.88375 7.1 9.05375 7.27 9.3475C7.44 9.635 8.0275 10.5937 8.8925 11.3637C10.0087 12.3575 10.9137 12.675 11.2375 12.81C11.4787 12.91 11.7662 12.8863 11.9425 12.6988C12.1663 12.4575 12.4425 12.0575 12.7238 11.6638C12.9237 11.3813 13.1763 11.3462 13.4412 11.4462C13.7113 11.54 15.14 12.2462 15.4338 12.3925C15.7275 12.54 15.9212 12.61 15.9925 12.7338C16.0625 12.8575 16.0625 13.4388 15.8212 14.1213Z" fill="currentColor"/>
</symbol><symbol viewBox="0 0 27 27" fill="none" id="icon-wh-stroke" xmlns="http://www.w3.org/2000/svg">
<path d="M21.4297 5.52382C20.3983 4.48198 19.1698 3.65594 17.8158 3.09387C16.4618 2.53181 15.0094 2.24496 13.5434 2.25007C7.40094 2.25007 2.39469 7.25632 2.39469 13.3988C2.39469 15.3676 2.91219 17.2801 3.87969 18.9676L2.30469 24.7501L8.21094 23.1976C9.84219 24.0863 11.6759 24.5588 13.5434 24.5588C19.6859 24.5588 24.6922 19.5526 24.6922 13.4101C24.6922 10.4288 23.5334 7.62757 21.4297 5.52382ZM13.5434 22.6688C11.8784 22.6688 10.2472 22.2188 8.81844 21.3751L8.48094 21.1726L4.97094 22.0951L5.90469 18.6751L5.67969 18.3263C4.75465 16.8492 4.26347 15.1417 4.26219 13.3988C4.26219 8.29132 8.42469 4.12882 13.5322 4.12882C16.0072 4.12882 18.3359 5.09632 20.0797 6.85132C20.9431 7.71078 21.6274 8.73306 22.0928 9.85892C22.5582 10.9848 22.7955 12.1918 22.7909 13.4101C22.8134 18.5176 18.6509 22.6688 13.5434 22.6688ZM18.6284 15.7388C18.3472 15.6038 16.9747 14.9288 16.7272 14.8276C16.4684 14.7376 16.2884 14.6926 16.0972 14.9626C15.9059 15.2438 15.3772 15.8738 15.2197 16.0538C15.0622 16.2451 14.8934 16.2676 14.6122 16.1213C14.3309 15.9863 13.4309 15.6826 12.3734 14.7376C11.5409 13.9951 10.9897 13.0838 10.8209 12.8026C10.6634 12.5213 10.7984 12.3751 10.9447 12.2288C11.0684 12.1051 11.2259 11.9026 11.3609 11.7451C11.4959 11.5876 11.5522 11.4638 11.6422 11.2838C11.7322 11.0926 11.6872 10.9351 11.6197 10.8001C11.5522 10.6651 10.9897 9.29257 10.7647 8.73007C10.5397 8.19007 10.3034 8.25757 10.1347 8.24632H9.59469C9.40344 8.24632 9.11094 8.31382 8.85219 8.59507C8.60469 8.87632 7.88469 9.55132 7.88469 10.9238C7.88469 12.2963 8.88594 13.6238 9.02094 13.8038C9.15594 13.9951 10.9897 16.8076 13.7797 18.0113C14.4434 18.3038 14.9609 18.4726 15.3659 18.5963C16.0297 18.8101 16.6372 18.7763 17.1209 18.7088C17.6609 18.6301 18.7747 18.0338 18.9997 17.3813C19.2359 16.7288 19.2359 16.1776 19.1572 16.0538C19.0784 15.9301 18.9097 15.8738 18.6284 15.7388Z" fill="currentColor"/>
</symbol></svg>