<svg width="165" height="52" viewBox="0 0 165 52" fill="none" xmlns="http://www.w3.org/2000/svg">
<path d="M112.947 30.2041C118.896 30.1866 123.739 34.9906 123.757 40.9328C123.775 46.8759 118.96 51.7075 113.01 51.725C107.056 51.7426 102.214 46.9386 102.197 40.9969C102.18 35.0543 106.992 30.2222 112.947 30.2041Z" fill="#18A4CF"/>
<path d="M24.2301 30.4806C30.1841 30.4635 35.0231 35.2652 35.0407 41.2074C35.0588 47.149 30.2479 51.983 24.293 52.0001C18.3419 52.0177 13.4967 47.2122 13.4795 41.271C13.4619 35.3279 18.2786 30.4982 24.2301 30.4806Z" fill="#18A4CF"/>
<path d="M0.0842882 43.6729C2.68771 44.639 8.9286 44.5407 8.9286 44.5407L9.22363 40.27C9.19841 31.9449 16.4072 25.7619 24.7485 25.7377C33.0837 25.7135 39.4031 31.8214 39.4283 40.148L39.455 44.7202L97.7715 44.5321L98.0156 41.1008C97.9913 32.835 104.682 26.159 112.961 26.1348C121.244 26.1106 127.982 32.7913 128.006 41.0576L128.129 44.6989L133.953 44.0776C134.562 42.0218 134.797 37.8637 134.467 33.1115C134.137 28.3606 131.607 17.8376 129.644 16.0018C127.683 14.1664 108.952 4.7464 101.853 2.43699C94.6622 0.0971818 68.7712 -0.869426 60.3142 0.94124C51.8592 2.75618 34.7282 13.567 30.0334 15.4014C25.3353 17.2372 8.55505 20.5855 4.09435 24.8276C-0.932146 29.8739 0.0842882 43.6729 0.0842882 43.6729ZM72.8821 4.97724C72.8821 4.97724 90.7126 4.86324 93.4212 7.15223C97.0753 9.8383 100.431 16.8943 100.431 16.8943L73.052 18.6788L72.8821 4.97724ZM39.2104 16.4402C47.6488 11.4628 55.4914 4.526 68.4271 4.96964L68.5585 18.8532L39.6248 20.3366C39.6248 20.3366 30.7586 21.4172 39.2104 16.4402Z" fill="#18A4CF"/>
<path opacity="0.5" d="M144.421 2.64417H116.649C118.866 3.59415 121.313 5.01912 123.71 7.39408H144.421C145.717 7.39408 146.768 6.313 146.768 5.01912C146.768 3.72572 145.717 2.64417 144.421 2.64417Z" fill="#18A4CF"/>
<path opacity="0.5" d="M162.652 14.0439H132.217C133.917 15.4689 135.225 17.3689 135.894 18.3189H162.652C163.949 18.3189 165 17.4758 165 16.1814C165 14.888 163.949 14.0439 162.652 14.0439Z" fill="#18A4CF"/>
<path opacity="0.5" d="M151.461 26.8687H138.329C138.649 28.2936 138.904 29.7186 139.076 31.6186H151.46C152.756 31.6186 153.807 30.538 153.807 29.2436C153.807 27.9493 152.756 26.8687 151.461 26.8687Z" fill="#18A4CF"/>
</svg>
