<svg width="60" height="60" viewBox="0 0 60 60" fill="none" xmlns="http://www.w3.org/2000/svg">
<g clip-path="url(#clip0_1_8656)">
<path d="M40.7812 15.0938V10.5938C40.7812 10.0313 40.3125 9.5625 39.75 9.5625H11.5313C10.9688 9.5625 10.5 10.0313 10.5 10.5938V15.0938C10.5 15.6563 10.9688 16.125 11.5313 16.125H39.75C40.3125 16.0313 40.7812 15.6563 40.7812 15.0938Z" fill="url(#paint0_linear_1_8656)"/>
<path d="M10.9688 22.3125H18.75C19.0313 22.3125 19.2188 22.125 19.2188 21.8438C19.2188 21.5625 19.0313 21.375 18.75 21.375H10.9688C10.6875 21.375 10.5 21.5625 10.5 21.8438C10.5 22.125 10.7813 22.3125 10.9688 22.3125Z" fill="url(#paint1_linear_1_8656)"/>
<path d="M25.9688 22.3125C26.25 22.3125 26.4375 22.125 26.4375 21.8438C26.4375 21.5625 26.25 21.375 25.9688 21.375H22.5C22.2187 21.375 22.0312 21.5625 22.0312 21.8438C22.0312 22.125 22.2187 22.3125 22.5 22.3125H25.9688Z" fill="url(#paint2_linear_1_8656)"/>
<path d="M10.9688 26.5312H25.9688C26.25 26.5312 26.4375 26.3438 26.4375 26.0625C26.4375 25.7812 26.25 25.5938 25.9688 25.5938H10.9688C10.6875 25.5938 10.5 25.7812 10.5 26.0625C10.5 26.3438 10.7812 26.5312 10.9688 26.5312Z" fill="url(#paint3_linear_1_8656)"/>
<path d="M10.7812 30.6562H14.5312C14.8125 30.6562 15 30.4688 15 30.1875C15 29.9062 14.8125 29.7188 14.5312 29.7188H10.7812C10.5 29.7188 10.3125 29.9062 10.3125 30.1875C10.3125 30.4688 10.5 30.6562 10.7812 30.6562Z" fill="url(#paint4_linear_1_8656)"/>
<path d="M25.9688 29.7188H18C17.7187 29.7188 17.5312 29.9062 17.5312 30.1875C17.5312 30.4688 17.7187 30.6562 18 30.6562H25.9688C26.25 30.6562 26.4375 30.4688 26.4375 30.1875C26.4375 29.9062 26.25 29.7188 25.9688 29.7188Z" fill="url(#paint5_linear_1_8656)"/>
<path d="M10.7813 34.5938H22.5938C22.875 34.5938 23.0625 34.4063 23.0625 34.125C23.0625 33.8438 22.7813 33.75 22.5938 33.75H10.7813C10.5 33.75 10.3125 33.9375 10.3125 34.2188C10.3125 34.5 10.5 34.5938 10.7813 34.5938Z" fill="url(#paint6_linear_1_8656)"/>
<path d="M30 49.0312C27.8438 49.5937 26.3438 49.5937 25.5 48.9375C24.9375 48.5625 24.6563 47.9062 24.6563 46.9687C24.6563 46.7812 24.4688 46.5937 24.2813 46.5C24.0938 46.4062 23.9063 46.5 23.8125 46.6875C22.7813 48.4687 21.375 48.75 20.8125 48.4687C20.3438 48.1875 20.1563 47.3437 21 45.9375C21.0938 45.75 21.0938 45.4687 20.8125 45.2812C20.625 45.1875 20.3438 45.1875 20.1563 45.4687C18.9375 47.5312 18.2812 48.1875 16.6875 49.0312C16.6875 49.0312 16.5938 49.0312 16.5 49.0312C16.3125 48.9375 16.125 48.5625 16.125 48.2812C16.3125 46.5937 18.8438 43.5 20.25 41.9062C20.4375 41.7187 20.625 41.5312 20.8125 41.3437C21 41.1562 20.9063 40.875 20.7188 40.6875C20.5313 40.5 20.25 40.5 20.0625 40.6875C20.0625 40.6875 19.875 40.875 19.5938 41.25C17.3438 43.5 13.5 44.4375 10.5938 43.4062C10.3125 43.3125 10.125 43.4062 10.0312 43.6875C9.9375 43.9687 10.0313 44.1562 10.3125 44.25C12.5625 45.0937 15.2812 44.8125 17.625 43.6875C16.5 45.1875 15.4687 46.875 15.2812 48.0937C15.1875 48.6562 15.5625 49.3125 16.0313 49.6875C16.4063 49.9687 16.7812 49.9687 17.1562 49.7812C18.1875 49.2187 18.8438 48.75 19.5 48C19.5938 48.5625 19.9688 49.0312 20.3438 49.2187C21.1875 49.7812 22.6875 49.5 23.9063 48.0937C24.0938 48.75 24.4688 49.3125 24.9375 49.6875C25.5 50.1562 26.3438 50.3437 27.375 50.3437C28.2188 50.3437 29.1562 50.1562 30.2812 49.875C30.5625 49.7812 30.6563 49.5937 30.6563 49.3125C30.4688 49.125 30.1875 48.9375 30 49.0312Z" fill="url(#paint7_linear_1_8656)"/>
<path d="M56.9062 27.8437C56.625 27.5625 56.25 27.1875 56.1562 27C56.0625 26.7187 56.25 26.25 56.3437 25.7812C56.5312 25.125 56.8125 24.375 56.4375 23.8125C56.0625 23.25 55.3125 23.0625 54.6562 22.875C54.1875 22.7812 53.7187 22.6875 53.5312 22.5C53.3437 22.3125 53.25 21.8437 53.1562 21.375C53.0625 20.7187 52.875 19.9687 52.2188 19.5937C51.6562 19.2187 50.9062 19.5 50.25 19.6875C49.875 19.7812 49.5 19.9687 49.2188 19.9687V2.4375C49.2188 1.03125 48.1875 0 46.875 0H4.40625C3.09375 0 1.96875 1.03125 1.96875 2.4375V57.6562C1.96875 58.9687 3 60.0937 4.40625 60.0937H46.875C48.1875 60.0937 49.3125 58.9687 49.3125 57.6562V46.4062C49.4062 46.5 49.5 46.5 49.5938 46.5C49.875 46.5 50.0625 46.4062 50.1562 46.125L51.8437 43.4062L54.6562 43.9687C54.9375 43.9687 55.2187 43.9687 55.3125 43.6875C55.5 43.5 55.5 43.2187 55.4062 42.9375L53.1562 37.2187C53.25 36.9375 53.3438 36.75 53.4375 36.6562C53.625 36.4687 54.0938 36.375 54.5625 36.2812C55.2188 36.0937 55.9687 36 56.3437 35.3437C56.7187 34.7812 56.4375 34.0312 56.25 33.375C56.0625 32.9062 55.9687 32.4375 56.0625 32.1562C56.1562 31.875 56.5312 31.5937 56.8125 31.3125C57.375 30.8437 57.9375 30.2812 57.9375 29.625C58.0312 28.875 57.375 28.3125 56.9062 27.8437ZM52.125 29.625C52.125 32.7187 49.5937 35.25 46.5 35.25C43.4062 35.25 40.875 32.7187 40.875 29.625C40.875 26.5312 43.4062 24 46.5 24C49.5937 23.9062 52.125 26.4375 52.125 29.625ZM36.6562 25.7812C36.75 26.25 36.9375 26.7187 36.8438 27C36.75 27.2812 36.375 27.5625 36.0938 27.8437C35.5312 28.3125 34.9688 28.875 34.9688 29.5312C34.9688 30.2812 35.5312 30.75 36.0938 31.2187C36.375 31.5 36.75 31.875 36.8438 32.0625C36.9375 32.3437 36.75 32.8125 36.6562 33.2812C36.4687 33.9375 36.1875 34.6875 36.5625 35.25C36.9375 35.8125 37.6875 36 38.3438 36.1875C38.8125 36.2812 39.2812 36.375 39.4687 36.5625C39.5625 36.6562 39.6562 36.8437 39.75 37.125L37.5 42.8437C37.4062 43.125 37.5 43.4062 37.5937 43.5937C37.7812 43.7812 38.0625 43.875 38.25 43.875L41.0625 43.3125L42.75 46.0312C42.8437 46.2187 43.125 46.4062 43.3125 46.4062C43.5 46.4062 43.6875 46.3125 43.7812 46.2187V54.8437H7.40625V5.15625H43.875V19.9687C43.5937 20.0625 43.125 19.875 42.75 19.7812C42.0937 19.5937 41.3438 19.3125 40.7812 19.6875C40.2188 20.0625 40.0312 20.8125 39.8438 21.4687C39.75 21.9375 39.6562 22.4062 39.4687 22.5937C39.2812 22.7812 38.8125 22.875 38.3438 22.9687C37.6875 23.1562 36.9375 23.25 36.5625 23.9062C36.1875 24.375 36.375 25.125 36.6562 25.7812ZM43.3125 45.2812L41.625 42.5625C41.5312 42.375 41.3438 42.2812 41.1562 42.375L38.4375 42.8437L40.125 38.7187C40.2188 39.0937 40.5 39.375 40.7812 39.5625C41.3438 39.9375 42.0937 39.6562 42.75 39.4687C43.2187 39.375 43.6875 39.1875 43.9688 39.2812C44.25 39.375 44.5312 39.75 44.8125 40.0312L45.4688 40.6875L43.9688 43.9687V44.0625L43.3125 45.2812ZM48.375 57.5625C48.375 58.4062 47.7188 59.0625 46.875 59.0625H4.40625C3.5625 59.0625 2.90625 58.4062 2.90625 57.5625V2.4375C2.90625 1.59375 3.5625 0.9375 4.40625 0.9375H46.875C47.7188 0.9375 48.375 1.59375 48.375 2.4375V19.4062L48.2812 19.3125C47.8125 18.75 47.25 18.1875 46.5938 18.1875C45.8438 18.1875 45.375 18.75 44.9062 19.3125V4.6875C44.9062 4.40625 44.7188 4.21875 44.4375 4.21875H6.9375C6.65625 4.21875 6.46875 4.40625 6.46875 4.6875V55.3125C6.46875 55.5937 6.65625 55.7812 6.9375 55.7812H44.3437C44.625 55.7812 44.8125 55.5937 44.8125 55.3125V44.3437L46.3125 41.0625H46.5C46.5 41.0625 46.5937 41.0625 46.6875 41.0625L48.375 44.625V57.5625ZM54.5625 42.8437L51.8437 42.375C51.6562 42.375 51.4687 42.4687 51.375 42.5625L49.6875 45.2812L49.3125 44.4375V44.3437L47.625 40.7812C47.9062 40.5937 48.0938 40.3125 48.2812 40.125C48.5625 39.8437 48.9375 39.4687 49.125 39.375C49.4062 39.2812 49.875 39.4687 50.3438 39.5625C51 39.75 51.75 40.0312 52.3125 39.6562C52.5937 39.4687 52.875 39.1875 52.9688 38.8125L54.5625 42.8437Z" fill="url(#paint8_linear_1_8656)"/>
</g>
<defs>
<linearGradient id="paint0_linear_1_8656" x1="25.6406" y1="9.5625" x2="25.6406" y2="16.125" gradientUnits="userSpaceOnUse">
<stop stop-color="#414B57"/>
<stop offset="1" stop-color="#41464C"/>
</linearGradient>
<linearGradient id="paint1_linear_1_8656" x1="14.8594" y1="21.375" x2="14.8594" y2="22.3125" gradientUnits="userSpaceOnUse">
<stop stop-color="#414B57"/>
<stop offset="1" stop-color="#41464C"/>
</linearGradient>
<linearGradient id="paint2_linear_1_8656" x1="24.2344" y1="21.375" x2="24.2344" y2="22.3125" gradientUnits="userSpaceOnUse">
<stop stop-color="#414B57"/>
<stop offset="1" stop-color="#41464C"/>
</linearGradient>
<linearGradient id="paint3_linear_1_8656" x1="18.4688" y1="25.5938" x2="18.4688" y2="26.5312" gradientUnits="userSpaceOnUse">
<stop stop-color="#414B57"/>
<stop offset="1" stop-color="#41464C"/>
</linearGradient>
<linearGradient id="paint4_linear_1_8656" x1="12.6562" y1="29.7188" x2="12.6562" y2="30.6562" gradientUnits="userSpaceOnUse">
<stop stop-color="#414B57"/>
<stop offset="1" stop-color="#41464C"/>
</linearGradient>
<linearGradient id="paint5_linear_1_8656" x1="21.9844" y1="29.7188" x2="21.9844" y2="30.6562" gradientUnits="userSpaceOnUse">
<stop stop-color="#414B57"/>
<stop offset="1" stop-color="#41464C"/>
</linearGradient>
<linearGradient id="paint6_linear_1_8656" x1="16.6875" y1="33.75" x2="16.6875" y2="34.5938" gradientUnits="userSpaceOnUse">
<stop stop-color="#414B57"/>
<stop offset="1" stop-color="#41464C"/>
</linearGradient>
<linearGradient id="paint7_linear_1_8656" x1="20.3262" y1="40.5469" x2="20.3262" y2="50.3437" gradientUnits="userSpaceOnUse">
<stop stop-color="#414B57"/>
<stop offset="1" stop-color="#41464C"/>
</linearGradient>
<linearGradient id="paint8_linear_1_8656" x1="29.9576" y1="0" x2="29.9576" y2="60.0937" gradientUnits="userSpaceOnUse">
<stop stop-color="#414B57"/>
<stop offset="1" stop-color="#41464C"/>
</linearGradient>
<clipPath id="clip0_1_8656">
<rect width="60" height="60" fill="white"/>
</clipPath>
</defs>
</svg>
