<svg width="60" height="60" viewBox="0 0 60 60" fill="none" xmlns="http://www.w3.org/2000/svg">
<path d="M8.70578 17.6782H32.6286C33.1086 17.6782 33.4857 17.3011 33.4857 16.821C33.4857 16.3497 33.1086 15.9639 32.6286 15.9639H8.70578C8.23431 15.9639 7.84863 16.3497 7.84863 16.821C7.84863 17.3011 8.23431 17.6782 8.70578 17.6782Z" fill="url(#paint0_linear_1_8691)"/>
<path d="M8.70578 21.6122H32.6286C33.1086 21.6122 33.4857 21.2268 33.4857 20.7551C33.4857 20.2838 33.1086 19.8979 32.6286 19.8979H8.70578C8.23431 19.8979 7.84863 20.2838 7.84863 20.7551C7.84863 21.2268 8.23431 21.6122 8.70578 21.6122Z" fill="url(#paint1_linear_1_8691)"/>
<path d="M8.70578 25.538H20.6717C21.1429 25.538 21.5288 25.1526 21.5288 24.6809C21.5288 24.2096 21.1429 23.8237 20.6717 23.8237H8.70578C8.23431 23.8237 7.84863 24.2096 7.84863 24.6809C7.84863 25.1526 8.23431 25.538 8.70578 25.538Z" fill="url(#paint2_linear_1_8691)"/>
<path d="M14.9714 28.761H10.4971C9.50272 28.761 8.68848 29.5667 8.68848 30.5523V35.0439C8.68848 36.0295 9.50272 36.8352 10.4971 36.8352H14.9714C15.9742 36.8352 16.7801 36.0295 16.7801 35.0439V30.5523C16.7801 29.5667 15.9742 28.761 14.9714 28.761ZM14.9714 32.241L12.6743 34.5379C12.3494 34.8628 11.822 34.876 11.4656 34.5379L10.4971 33.5694C10.1627 33.2355 10.1627 32.6868 10.4971 32.3524C10.8313 32.018 11.3714 32.018 11.7142 32.3524L12.0741 32.7211L13.7629 31.0323C14.0971 30.6979 14.6372 30.6979 14.9714 31.0323C15.3056 31.3667 15.3056 31.9066 14.9714 32.241Z" fill="url(#paint3_linear_1_8691)"/>
<path d="M14.9714 39.7754H10.4971C9.50272 39.7754 8.68848 40.5811 8.68848 41.5751V46.0583C8.68848 47.0523 9.50272 47.858 10.4971 47.858H14.9714C15.9742 47.858 16.7801 47.0523 16.7801 46.0583V41.5751C16.7801 40.5811 15.9742 39.7754 14.9714 39.7754ZM14.9113 43.2726L12.6228 45.5695C12.2808 45.9116 11.727 45.8907 11.4058 45.5695L10.4371 44.601C10.1029 44.2666 10.1029 43.7267 10.4371 43.3839C10.7713 43.0495 11.32 43.0495 11.6544 43.3839L12.0143 43.7522L13.7028 42.0639C14.037 41.7295 14.5771 41.7295 14.9113 42.0639C15.2457 42.3979 15.2457 42.9382 14.9113 43.2726Z" fill="url(#paint4_linear_1_8691)"/>
<path d="M28.6596 30.2522H21.9138C21.4425 30.2522 21.0566 30.6381 21.0566 31.1093C21.0566 31.5894 21.4425 31.9665 21.9138 31.9665H28.6596C29.1311 31.9665 29.5167 31.5894 29.5167 31.1093C29.5167 30.6381 29.1311 30.2522 28.6596 30.2522Z" fill="url(#paint5_linear_1_8691)"/>
<path d="M28.3595 33.5955H21.9138C21.4425 33.5955 21.0566 33.9809 21.0566 34.4526C21.0566 34.9239 21.4425 35.3097 21.9138 35.3097H28.3595C28.8396 35.3097 29.2167 34.9239 29.2167 34.4526C29.2167 33.9809 28.8396 33.5955 28.3595 33.5955Z" fill="url(#paint6_linear_1_8691)"/>
<path d="M7.18813 52.9925H26.2506V55.8611C26.2506 56.7354 26.9658 57.4506 27.8403 57.4506H31.655C32.5331 57.4506 33.2448 56.7392 33.2448 55.8611V53.6182H48.1418V55.8523C48.1418 56.735 48.8575 57.4506 49.7405 57.4506H53.5462C54.4243 57.4506 55.1362 56.7392 55.1362 55.8611C55.1363 54.8172 55.136 59.6417 55.1368 45.6553C55.1368 44.9438 54.9482 44.2495 54.5539 43.5895L54.3492 43.2906L56.5459 42.4046C56.9987 42.2234 57.2855 41.7856 57.2855 41.303V40.6614C57.2855 40.2693 57.0213 39.9144 56.6364 39.8089L54.0106 39.1677C53.8901 39.1376 53.7691 39.1677 53.6712 39.2431L52.736 40.0475C52.7027 39.9616 49.975 32.9166 50.1482 33.364C49.7197 32.301 48.7596 31.5895 47.6368 31.5037C44.6368 31.2726 41.6197 31.1868 38.6197 31.2638V12.9809C38.6197 10.5125 36.6139 8.50687 34.1452 8.50687H30.8454C30.2881 7.44381 29.174 6.71516 27.8797 6.71516H24.7167V6.59546C24.7167 4.31918 22.8584 2.54956 20.6712 2.54956C18.4339 2.54956 16.6167 4.3668 16.6167 6.59546V6.71516H13.4539C12.1707 6.71516 11.0598 7.42583 10.4882 8.50687H7.18813C4.71966 8.50687 2.71387 10.5125 2.71387 12.9809V48.518C2.71387 50.9869 4.71966 52.9925 7.18813 52.9925ZM30.6482 49.2982H28.0253V46.6924H31.8825L30.6482 49.2982ZM45.0483 50.1553C36.3435 50.1553 36.4596 50.1685 36.3739 50.1465C35.5774 50.0913 35.0015 49.2472 35.3454 48.4322L36.4082 45.9726C36.5881 45.5529 37.0232 45.2267 37.5483 45.2267H43.9853C44.4738 45.2267 44.9196 45.518 45.1167 45.9726L46.1797 48.4322C46.5364 49.2778 45.9051 50.1553 45.0483 50.1553ZM53.2853 46.6924V49.2982H50.6711L49.4282 46.6924H53.2853ZM47.4996 33.2096C47.9796 33.2439 48.3739 33.544 48.5539 34.0069C48.5888 34.097 51.6838 42.0915 51.4939 41.601C44.9728 41.601 39.9342 41.601 29.9024 41.601L32.8424 33.9809C33.0054 33.5611 33.4339 33.2439 33.8968 33.2096C38.5632 32.8481 42.7698 32.8482 47.4996 33.2096ZM4.42815 12.9809C4.42815 11.4554 5.66239 10.2212 7.18813 10.2212H10.1281C10.2139 11.9781 11.6712 13.3752 13.4539 13.3752H27.8797C29.6712 13.3752 31.1281 11.9781 31.2139 10.2212H34.1452C35.6712 10.2212 36.9054 11.4554 36.9054 12.9809V31.3237C35.8595 31.358 34.814 31.4183 33.7681 31.5037C32.654 31.5895 31.6596 32.3181 31.2396 33.364L28.7282 39.8784L27.8368 39.1066C27.7426 39.0296 27.6225 39.0037 27.5024 39.0296L24.8797 39.6725C24.494 39.7838 24.2282 40.1354 24.2282 40.5296V41.1725C24.2282 41.6525 24.5112 42.0895 24.9653 42.2694L27.1424 43.1437L26.7997 43.6409C26.4397 44.2495 26.251 44.9438 26.251 45.6553V51.2782H7.18813C5.66239 51.2782 4.42815 50.044 4.42815 48.518V12.9809Z" fill="url(#paint7_linear_1_8691)"/>
<defs>
<linearGradient id="paint0_linear_1_8691" x1="20.6672" y1="15.9639" x2="20.6672" y2="17.6782" gradientUnits="userSpaceOnUse">
<stop stop-color="#414B57"/>
<stop offset="1" stop-color="#41464C"/>
</linearGradient>
<linearGradient id="paint1_linear_1_8691" x1="20.6672" y1="19.8979" x2="20.6672" y2="21.6122" gradientUnits="userSpaceOnUse">
<stop stop-color="#414B57"/>
<stop offset="1" stop-color="#41464C"/>
</linearGradient>
<linearGradient id="paint2_linear_1_8691" x1="14.6887" y1="23.8237" x2="14.6887" y2="25.538" gradientUnits="userSpaceOnUse">
<stop stop-color="#414B57"/>
<stop offset="1" stop-color="#41464C"/>
</linearGradient>
<linearGradient id="paint3_linear_1_8691" x1="12.7343" y1="28.761" x2="12.7343" y2="36.8352" gradientUnits="userSpaceOnUse">
<stop stop-color="#414B57"/>
<stop offset="1" stop-color="#41464C"/>
</linearGradient>
<linearGradient id="paint4_linear_1_8691" x1="12.7343" y1="39.7754" x2="12.7343" y2="47.858" gradientUnits="userSpaceOnUse">
<stop stop-color="#414B57"/>
<stop offset="1" stop-color="#41464C"/>
</linearGradient>
<linearGradient id="paint5_linear_1_8691" x1="25.2867" y1="30.2522" x2="25.2867" y2="31.9665" gradientUnits="userSpaceOnUse">
<stop stop-color="#414B57"/>
<stop offset="1" stop-color="#41464C"/>
</linearGradient>
<linearGradient id="paint6_linear_1_8691" x1="25.1366" y1="33.5955" x2="25.1366" y2="35.3097" gradientUnits="userSpaceOnUse">
<stop stop-color="#414B57"/>
<stop offset="1" stop-color="#41464C"/>
</linearGradient>
<linearGradient id="paint7_linear_1_8691" x1="29.9997" y1="2.54956" x2="29.9997" y2="57.4506" gradientUnits="userSpaceOnUse">
<stop stop-color="#414B57"/>
<stop offset="1" stop-color="#41464C"/>
</linearGradient>
</defs>
</svg>
