<svg width="398" height="35" viewBox="0 0 398 35" fill="none" xmlns="http://www.w3.org/2000/svg">
<path d="M391.452 14.476L392.724 13.2041L397.873 18.3846L392.724 23.5651L391.452 22.2932L394.771 18.3846L391.452 14.476ZM387.078 14.6621L388.381 13.3902L393.282 18.3846L388.381 23.3479L387.078 22.0761L390.18 18.3846L387.078 14.6621Z" fill="white"/>
<path d="M370.216 10.04H383.245V24.9611H385.385V30.762H383.369L383.121 27.1946H367.114L366.835 30.762H364.818V24.9611H367.083L370.216 10.04ZM372.17 12.2115L369.689 24.9611H380.825V12.2115H372.17Z" fill="white"/>
<path d="M344.902 10.04H347.322V17.1748H359.637V10.04H362.088V27.1946H359.637V19.4083H347.322V27.1946H344.902V10.04Z" fill="white"/>
<path d="M326.029 10.04H341.167V12.2425H328.449V17.2989H339.865V19.5014H328.449V24.9611H341.633V27.1946H326.029V10.04Z" fill="white"/>
<path d="M309.303 10.04H322.487V27.1946H320.067V12.2735H311.319L309.303 23.0378C309.055 24.4027 308.507 25.4367 307.659 26.1399C306.811 26.843 305.725 27.1946 304.402 27.1946H302.975V24.837H304.215C305.766 24.837 306.656 24.1545 306.883 22.7896L309.303 10.04Z" fill="white"/>
<path d="M301.745 13.6694L299.791 14.8172C298.302 12.8525 296.151 11.8702 293.339 11.8702C291.229 11.8702 289.544 12.4906 288.282 13.7315C287.021 14.9516 286.39 16.575 286.39 18.6017C286.39 20.5871 287.031 22.2208 288.313 23.503C289.616 24.7852 291.291 25.4263 293.339 25.4263C296.089 25.4263 298.24 24.4233 299.791 22.4173L301.776 23.5651C299.874 26.2742 297.092 27.6288 293.432 27.6288C290.64 27.6288 288.355 26.8119 286.576 25.1782C284.818 23.5444 283.939 21.3523 283.939 18.6017C283.939 15.8719 284.829 13.7005 286.607 12.0874C288.406 10.4536 290.681 9.63672 293.432 9.63672C297.134 9.63672 299.905 10.981 301.745 13.6694Z" fill="white"/>
<path d="M263.775 10.04H266.195V17.1748H278.51V10.04H280.961V27.1946H278.51V19.4083H266.195V27.1946H263.775V10.04Z" fill="white"/>
<path d="M249.43 12.2425L245.211 22.1692H256.068L251.974 12.2425H249.43ZM247.941 10.04H253.556L260.846 27.1946H258.302L257.092 24.4027H244.28L243.071 27.1946H240.465L247.941 10.04Z" fill="white"/>
<path d="M222.576 10.04H232.565C234.53 10.04 236.174 10.6501 237.497 11.8703C238.821 13.0697 239.483 14.6311 239.483 16.5544C239.483 18.4984 238.821 20.0701 237.497 21.2696C236.174 22.4484 234.53 23.0378 232.565 23.0378H224.996V27.1946H222.576V10.04ZM224.996 12.2735V20.8043H232.534C233.899 20.8043 234.995 20.432 235.822 19.6875C236.649 18.9223 237.063 17.878 237.063 16.5544C237.063 15.2515 236.639 14.2175 235.791 13.4523C234.964 12.6665 233.878 12.2735 232.534 12.2735H224.996Z" fill="white"/>
<path d="M202.23 10.04H219.881V12.2735H212.281V27.1946H209.831V12.2735H202.23V10.04Z" fill="white"/>
<path d="M194.892 13.2041L196.195 14.476L192.876 18.3846L196.195 22.2932L194.892 23.5651L189.773 18.3846L194.892 13.2041ZM199.266 13.3902L200.569 14.6621L197.436 18.3846L200.569 22.0761L199.266 23.3479L194.334 18.3846L199.266 13.3902Z" fill="white"/>
<path d="M161.338 18.6328C161.358 20.7422 162.03 22.407 163.354 23.6271C164.698 24.8473 166.404 25.4574 168.472 25.4574C170.52 25.4574 172.216 24.8473 173.56 23.6271C174.904 22.3863 175.576 20.7215 175.576 18.6328C175.576 16.544 174.904 14.8896 173.56 13.6694C172.216 12.4286 170.52 11.8082 168.472 11.8082C166.404 11.8082 164.698 12.4183 163.354 13.6384C162.03 14.8586 161.358 16.5233 161.338 18.6328ZM175.297 12.1494C177.117 13.8039 178.027 15.965 178.027 18.6328C178.027 21.3006 177.117 23.472 175.297 25.1471C173.498 26.8016 171.223 27.6288 168.472 27.6288C165.722 27.6288 163.437 26.8016 161.617 25.1471C159.818 23.472 158.918 21.3006 158.918 18.6328C158.918 15.965 159.818 13.8039 161.617 12.1494C163.437 10.4743 165.722 9.63672 168.472 9.63672C171.223 9.63672 173.498 10.4743 175.297 12.1494Z" fill="white"/>
<path d="M139.707 18.6328C139.727 20.7422 140.4 22.407 141.723 23.6271C143.067 24.8473 144.773 25.4574 146.842 25.4574C148.889 25.4574 150.585 24.8473 151.929 23.6271C153.273 22.3863 153.945 20.7215 153.945 18.6328C153.945 16.544 153.273 14.8896 151.929 13.6694C150.585 12.4286 148.889 11.8082 146.842 11.8082C144.773 11.8082 143.067 12.4183 141.723 13.6384C140.4 14.8586 139.727 16.5233 139.707 18.6328ZM153.666 12.1494C155.486 13.8039 156.396 15.965 156.396 18.6328C156.396 21.3006 155.486 23.472 153.666 25.1471C151.867 26.8016 149.592 27.6288 146.842 27.6288C144.091 27.6288 141.806 26.8016 139.986 25.1471C138.187 23.472 137.287 21.3006 137.287 18.6328C137.287 15.965 138.187 13.8039 139.986 12.1494C141.806 10.4743 144.091 9.63672 146.842 9.63672C149.592 9.63672 151.867 10.4743 153.666 12.1494Z" fill="white"/>
<path d="M118.078 18.6328C118.099 20.7422 118.771 22.407 120.094 23.6271C121.438 24.8473 123.145 25.4574 125.213 25.4574C127.26 25.4574 128.956 24.8473 130.3 23.6271C131.644 22.3863 132.316 20.7215 132.316 18.6328C132.316 16.544 131.644 14.8896 130.3 13.6694C128.956 12.4286 127.26 11.8082 125.213 11.8082C123.145 11.8082 121.438 12.4183 120.094 13.6384C118.771 14.8586 118.099 16.5233 118.078 18.6328ZM132.037 12.1494C133.857 13.8039 134.767 15.965 134.767 18.6328C134.767 21.3006 133.857 23.472 132.037 25.1471C130.238 26.8016 127.963 27.6288 125.213 27.6288C122.462 27.6288 120.177 26.8016 118.357 25.1471C116.558 23.472 115.658 21.3006 115.658 18.6328C115.658 15.965 116.558 13.8039 118.357 12.1494C120.177 10.4743 122.462 9.63672 125.213 9.63672C127.963 9.63672 130.238 10.4743 132.037 12.1494Z" fill="white"/>
<path d="M69.5554 0C75.8449 -4.83505e-06 80.1507 2.11907 81.5219 3.36558C80.7481 2.86697 77.2715 1.44868 69.5554 1.44868C56.8409 1.44868 51.6056 11.9951 40.387 12.7144C34.668 13.0811 24.6886 11.0791 18.6977 10.7782C12.3405 10.4589 9.14082 12.7144 7.10512 14.2102C8.60093 12.8391 12.7069 10.0967 18.6977 10.0967C26.1767 10.0967 26.9247 11.2186 38.5172 11.5926C49.7549 11.9551 54.9712 1.12116e-05 69.5554 0Z" fill="#18A4CF"/>
<path d="M66.5637 4.48744C63.946 7.10512 58.7107 11.2186 51.6056 11.2186C54.9712 11.5926 61.7023 11.5926 66.5637 4.48744Z" fill="#18A4CF"/>
<path d="M25.8028 13.8363C23.6906 13.7189 19.6949 15.0828 19.0716 15.3321C21.6857 14.8964 24.701 13.3279 31.4229 15.5299C35.9504 16.7663 41.8534 19.8195 49.5604 19.8195C58.5353 19.8195 71.4251 8.22698 84.8874 8.22698C89.7179 8.22698 89.8338 8.75005 95.2229 8.75005C96.8455 8.75005 99.2792 7.82289 100.967 6.73116C100.095 6.98046 98.4219 7.55197 96.3239 7.82289C93.1948 8.22698 88.627 6.73116 84.8874 6.73116C67.6856 6.73116 59.5274 19.0716 48.24 19.0716C42.2567 19.0716 32.534 14.2102 25.8028 13.8363Z" fill="#18A4CF"/>
<path d="M0 25.0549C0.373953 25.0549 1.86977 26.1767 6.73116 25.8028C11.9665 25.4001 16.454 19.8195 25.8028 19.8195C34.7777 19.8195 47.1174 26.7137 54.5972 26.7137C59.3743 26.7137 62.3835 25.7271 63.3067 25.2314C63.4042 25.1695 63.4928 25.1104 63.5721 25.0549C63.5258 25.1012 63.437 25.1614 63.3067 25.2314C61.8724 26.1425 58.519 27.6726 54.5972 27.6726C47.4921 27.6726 34.4111 21.4412 25.8028 20.9414C18.3237 20.5072 10.8447 26.7137 6.73116 26.7137C3.44037 26.7137 0.872558 25.9274 0 25.0549Z" fill="#18A4CF"/>
<path d="M91.3405 14.7766C87.3942 14.4269 82.7684 16.7033 81.5219 17.5758C83.1699 16.8627 87.2252 15.1181 91.3405 15.4719C96.208 15.8905 99.511 18.1955 102.089 19.8195C100.09 18.0796 96.208 15.2079 91.3405 14.7766Z" fill="#18A4CF"/>
<circle cx="25.8027" cy="28.7948" r="5.6093" fill="#18A4CF"/>
<circle cx="80.4003" cy="27.2988" r="5.6093" fill="#18A4CF"/>
</svg>
