<svg width="20" height="20" viewBox="0 0 20 20" fill="none" xmlns="http://www.w3.org/2000/svg">
<g clip-path="url(#clip0_2_1885)">
<path d="M4.82947 8.20447L4.75243 8.28151L4.75642 8.39039C4.89245 12.1085 7.89091 15.1138 11.6096 15.2498L11.7185 15.2538L11.7955 15.1768L13.483 13.4893C13.5577 13.4146 13.6514 13.375 13.75 13.375H18.75C18.9557 13.375 19.125 13.5443 19.125 13.75V18.75C19.125 18.9557 18.9557 19.125 18.75 19.125H12.5C6.08807 19.125 0.875 13.9119 0.875 7.5V1.25C0.875 1.04432 1.04432 0.875 1.25 0.875H6.25C6.45568 0.875 6.625 1.04432 6.625 1.25V6.25C6.625 6.34834 6.58546 6.44352 6.51433 6.51961L4.82947 8.20447ZM12.125 10C12.125 8.83068 11.1693 7.875 10 7.875C9.79432 7.875 9.625 7.70568 9.625 7.5C9.625 7.29432 9.79432 7.125 10 7.125C11.5869 7.125 12.875 8.41307 12.875 10C12.875 10.2057 12.7057 10.375 12.5 10.375C12.2943 10.375 12.125 10.2057 12.125 10ZM15.25 10C15.25 7.10568 12.8943 4.75 10 4.75C9.79432 4.75 9.625 4.58068 9.625 4.375C9.625 4.16932 9.79432 4 10 4C13.3057 4 16 6.69432 16 10C16 10.2057 15.8307 10.375 15.625 10.375C15.4193 10.375 15.25 10.2057 15.25 10ZM18.375 10C18.375 5.38068 14.6193 1.625 10 1.625C9.79432 1.625 9.625 1.45568 9.625 1.25C9.625 1.04432 9.79432 0.875 10 0.875C15.0307 0.875 19.125 4.96932 19.125 10C19.125 10.2057 18.9557 10.375 18.75 10.375C18.5443 10.375 18.375 10.2057 18.375 10Z" stroke="#98A4B2" stroke-width="0.5"/>
<path d="M4 1H6.5V6.5L4.5 8.5L4 1Z" fill="#98A4B2"/>
<path d="M19 15.5L19 13.5001L13.5 13.5001L11.5 15.5001L19 15.5Z" fill="#98A4B2"/>
</g>
<defs>
<clipPath id="clip0_2_1885">
<rect width="20" height="20" fill="white"/>
</clipPath>
</defs>
</svg>
