<svg width="126" height="32" viewBox="0 0 126 32" fill="none" xmlns="http://www.w3.org/2000/svg">
<g clip-path="url(#clip0_1_7623)">
<path d="M30.8119 23.5989C30.8119 24.2446 30.6088 24.7818 30.2025 25.2112C29.729 25.7127 29.0523 25.9628 28.1725 25.9628H26.8652V21.248H28.1411C29.1176 21.248 29.8341 21.5202 30.2909 22.0639C30.6389 22.4758 30.8126 22.9876 30.8126 23.5996L30.8119 23.5989ZM30.3467 23.5989C30.3467 23.1065 30.2019 22.6901 29.9129 22.3497C29.5271 21.8996 28.9363 21.6742 28.1404 21.6742H27.3298V25.5353H28.1718C28.8882 25.5353 29.4438 25.3294 29.8373 24.9176C30.1769 24.5609 30.3467 24.1212 30.3467 23.5989Z" fill="#98A4B2"/>
<path d="M32.0687 22.0509H31.6035V21.248H32.0687V22.0509ZM32.0687 25.9634H31.6035V22.4784H32.0687V25.9634Z" fill="#98A4B2"/>
<path d="M36.4306 25.4661C36.4306 26.0949 36.2569 26.5724 35.909 26.8998C35.6071 27.1843 35.2073 27.3265 34.7088 27.3265C34.2813 27.3265 33.9135 27.2109 33.6059 26.979C33.2977 26.7477 33.085 26.4366 32.9677 26.0455H33.4329C33.5463 26.3216 33.7238 26.536 33.9673 26.6893C34.1891 26.8296 34.4345 26.8998 34.703 26.8998C35.2227 26.8998 35.5828 26.7107 35.784 26.3327C35.9058 26.1034 35.966 25.8143 35.966 25.4661V25.2751C35.8442 25.5174 35.6712 25.7065 35.4476 25.8422C35.2233 25.978 34.958 26.0462 34.6524 26.0462C34.141 26.0462 33.7149 25.8689 33.3733 25.5142C33.0318 25.1595 32.8613 24.7314 32.8613 24.2306C32.8613 23.7298 33.0299 23.2822 33.3676 22.9275C33.7046 22.5728 34.125 22.3955 34.628 22.3955C34.942 22.3955 35.2137 22.4605 35.4418 22.5897C35.6699 22.7197 35.8494 22.9074 35.9795 23.1536L35.9923 22.478H36.4325V25.4661H36.4306ZM35.9903 24.2234C35.9903 23.8201 35.8596 23.4855 35.5975 23.2198C35.3355 22.9542 35.0138 22.8216 34.6325 22.8216C34.2512 22.8216 33.9481 22.9542 33.6989 23.2198C33.4496 23.4855 33.3246 23.8136 33.3246 24.204C33.3246 24.5944 33.4502 24.9283 33.7021 25.2043C33.9532 25.4804 34.2717 25.6188 34.6575 25.6188C35.0432 25.6188 35.356 25.4836 35.6097 25.2141C35.8635 24.9445 35.9897 24.6138 35.9897 24.2234H35.9903Z" fill="#98A4B2"/>
<path d="M37.8187 22.0509H37.3535V21.248H37.8187V22.0509ZM37.8187 25.9634H37.3535V22.4784H37.8187V25.9634Z" fill="#98A4B2"/>
<path d="M40.4019 22.9045H39.6035V25.9628H39.1383V22.9045H38.4219V22.4777H39.1383V21.248H39.6035V22.4777H40.4019V22.9045Z" fill="#98A4B2"/>
<path d="M44.5083 25.963H44.0681V25.3135C43.8836 25.5811 43.6676 25.7747 43.4209 25.8935C43.2114 25.9955 42.9768 26.0462 42.7167 26.0462C42.197 26.0462 41.7599 25.8734 41.4062 25.5272C41.0519 25.1809 40.875 24.7379 40.875 24.1988C40.875 23.7356 41.0256 23.3322 41.3274 22.9879C41.6709 22.593 42.1297 22.3955 42.7038 22.3955C43.0262 22.3955 43.2959 22.454 43.5112 22.5709C43.7272 22.6878 43.9079 22.8587 44.0546 23.0841L44.0675 22.4787H44.5077V25.9637L44.5083 25.963ZM44.0681 24.2429C44.0681 23.848 43.938 23.5121 43.6785 23.2361C43.4183 22.96 43.0941 22.8216 42.7045 22.8216C42.3149 22.8216 42.006 22.9568 41.7394 23.2263C41.4735 23.4959 41.3402 23.8324 41.3402 24.2364C41.3402 24.6405 41.4754 24.9555 41.7458 25.2206C42.0163 25.4862 42.3399 25.6188 42.7167 25.6188C43.0934 25.6188 43.4081 25.4849 43.6721 25.2173C43.9361 24.9497 44.0681 24.6249 44.0681 24.2423V24.2429Z" fill="#98A4B2"/>
<path d="M45.8969 25.9628H45.4316V21.248H45.8969V25.9628Z" fill="#98A4B2"/>
<path d="M48.3229 24.2617H46.6133V23.835H48.3229V24.2617Z" fill="#98A4B2"/>
<path d="M52.5396 25.963H52.0993V25.3135C51.9148 25.5811 51.6988 25.7747 51.4521 25.8935C51.2426 25.9955 51.0081 26.0462 50.7479 26.0462C50.2282 26.0462 49.7912 25.8734 49.4375 25.5272C49.0831 25.1809 48.9062 24.7379 48.9062 24.1988C48.9062 23.7356 49.0568 23.3322 49.3587 22.9879C49.7021 22.593 50.1609 22.3955 50.7351 22.3955C51.0574 22.3955 51.3272 22.454 51.5425 22.5709C51.7584 22.6878 51.9391 22.8587 52.0859 23.0841L52.0987 22.4787H52.5389V25.9637L52.5396 25.963ZM52.0993 24.2429C52.0993 23.848 51.9693 23.5121 51.7097 23.2361C51.4496 22.96 51.1253 22.8216 50.7357 22.8216C50.3461 22.8216 50.0373 22.9568 49.7707 23.2263C49.5048 23.4959 49.3715 23.8324 49.3715 24.2364C49.3715 24.6405 49.5067 24.9555 49.7771 25.2206C50.0475 25.4862 50.3711 25.6188 50.7479 25.6188C51.1247 25.6188 51.4393 25.4849 51.7033 25.2173C51.9673 24.9497 52.0993 24.6249 52.0993 24.2423V24.2429Z" fill="#98A4B2"/>
<path d="M55.2565 22.9053H53.9301V25.9636H53.4648V22.4785H55.2559V22.9053H55.2565Z" fill="#98A4B2"/>
<path d="M59.2843 24.3894H56.211C56.211 24.7337 56.3385 25.0247 56.5942 25.2625C56.8499 25.5002 57.1575 25.6191 57.5182 25.6191C57.7822 25.6191 58.0213 25.5483 58.2346 25.4054C58.448 25.2631 58.6095 25.0708 58.7185 24.8285H59.2023C59.0638 25.2066 58.846 25.5041 58.5486 25.7204C58.2513 25.9367 57.9078 26.0452 57.5176 26.0452C57.0062 26.0452 56.5801 25.8724 56.2386 25.5262C55.897 25.18 55.7266 24.7454 55.7266 24.2231C55.7266 23.7515 55.8771 23.3397 56.179 22.987C56.5186 22.592 56.9646 22.3945 57.5176 22.3945C58.1167 22.3945 58.5736 22.6134 58.8876 23.0506C59.1516 23.4157 59.2836 23.862 59.2836 24.3888L59.2843 24.3894ZM58.7812 23.9626C58.7184 23.6145 58.5698 23.3371 58.3353 23.1312C58.1007 22.9252 57.8284 22.822 57.5182 22.822C57.1869 22.822 56.9011 22.9272 56.6602 23.1377C56.4193 23.3481 56.2693 23.6229 56.211 23.9626H58.7819H58.7812Z" fill="#98A4B2"/>
<path d="M62.9296 25.9636H62.4644V24.3896H60.5414V25.9636H60.0762V22.4785H60.5414V23.9628H62.4644V22.4785H62.9296V25.9636Z" fill="#98A4B2"/>
<path d="M67.2355 23.5355H66.7139C66.6005 23.3108 66.4416 23.1354 66.2359 23.01C66.0308 22.8846 65.804 22.8223 65.5573 22.8223C65.1593 22.8223 64.8312 22.9548 64.5736 23.2205C64.316 23.4862 64.1872 23.8162 64.1872 24.2111C64.1872 24.6061 64.3212 24.9399 64.5897 25.2115C64.8575 25.4836 65.1805 25.6194 65.5579 25.6194C65.7969 25.6194 66.0186 25.5609 66.2243 25.444C66.4294 25.3271 66.5928 25.1608 66.7145 24.9438H67.2297C67.0875 25.2537 66.8985 25.5025 66.6639 25.6896C66.3583 25.9273 65.9892 26.0462 65.5579 26.0462C65.0004 26.0462 64.548 25.8552 64.2001 25.4726C63.8816 25.1244 63.7227 24.7061 63.7227 24.2176C63.7227 23.7544 63.8777 23.3472 64.1879 22.9944C64.5397 22.5949 64.9966 22.3955 65.5579 22.3955C65.9475 22.3955 66.2903 22.4975 66.5857 22.7015C66.8812 22.9054 67.0977 23.1835 67.2362 23.5362L67.2355 23.5355Z" fill="#98A4B2"/>
<path d="M69.9681 22.9053H69.0819V25.9636H68.6167V22.9053H67.7305V22.4785H69.9681V22.9053Z" fill="#98A4B2"/>
<path d="M72.9483 24.9567C72.9483 25.2458 72.8561 25.4816 72.6715 25.6641C72.4703 25.8635 72.1941 25.9636 71.8417 25.9636H70.5723V22.4785H71.8039C72.1685 22.4785 72.4389 22.5805 72.6145 22.7845C72.7529 22.9462 72.8221 23.1541 72.8221 23.4087C72.8221 23.5705 72.7811 23.7147 72.6997 23.842C72.6183 23.9693 72.5056 24.0648 72.3633 24.1285C72.5395 24.1752 72.6805 24.274 72.7875 24.4247C72.8945 24.5754 72.9477 24.7527 72.9477 24.9567H72.9483ZM72.3575 23.4087C72.3575 23.2392 72.3082 23.1125 72.2101 23.0294C72.1115 22.9469 71.966 22.9053 71.7731 22.9053H71.0375V23.9628H71.7731C71.9577 23.9628 72.1012 23.9128 72.2037 23.8128C72.3063 23.7127 72.3575 23.5783 72.3575 23.4081V23.4087ZM72.4831 24.9632C72.4831 24.7761 72.4222 24.6338 72.3011 24.5364C72.1794 24.439 72.0096 24.3896 71.7923 24.3896H71.0381V25.5368H71.7923C72.0397 25.5368 72.2217 25.4731 72.3389 25.3458C72.4351 25.2438 72.4838 25.1165 72.4838 24.9632H72.4831Z" fill="#98A4B2"/>
<path d="M77.1847 24.2231C77.1847 24.7415 77.013 25.1748 76.6695 25.5229C76.326 25.8711 75.8986 26.0452 75.3873 26.0452C74.8759 26.0452 74.4588 25.8711 74.1115 25.5229C73.7635 25.1748 73.5898 24.7415 73.5898 24.2231C73.5898 23.7047 73.7603 23.2708 74.1018 22.92C74.4434 22.5699 74.8721 22.3945 75.3873 22.3945C75.9025 22.3945 76.326 22.5686 76.6695 22.9168C77.013 23.265 77.1847 23.7002 77.1847 24.2231ZM76.7195 24.2231C76.7195 23.8282 76.5926 23.4956 76.3395 23.226C76.0858 22.9564 75.7686 22.8213 75.3873 22.8213C75.006 22.8213 74.683 22.9551 74.4319 23.2228C74.1807 23.4904 74.0544 23.8236 74.0544 24.2231C74.0544 24.6226 74.18 24.9494 74.4319 25.217C74.683 25.4846 75.0015 25.6184 75.3873 25.6184C75.773 25.6184 76.0858 25.4859 76.3395 25.2202C76.5933 24.9546 76.7195 24.6226 76.7195 24.2231Z" fill="#98A4B2"/>
<path d="M82.4199 25.9636H81.9547V22.9053H80.0316V25.9636H79.5664V22.4785H82.4199V25.9636Z" fill="#98A4B2"/>
<path d="M86.8078 24.2231C86.8078 24.7415 86.636 25.1748 86.2926 25.5229C85.9491 25.8711 85.5217 26.0452 85.0103 26.0452C84.499 26.0452 84.0818 25.8711 83.7345 25.5229C83.3865 25.1748 83.2129 24.7415 83.2129 24.2231C83.2129 23.7047 83.3834 23.2708 83.7249 22.92C84.0664 22.5699 84.4951 22.3945 85.0103 22.3945C85.5255 22.3945 85.9491 22.5686 86.2926 22.9168C86.636 23.265 86.8078 23.7002 86.8078 24.2231ZM86.3426 24.2231C86.3426 23.8282 86.2157 23.4956 85.9626 23.226C85.7088 22.9564 85.3916 22.8213 85.0103 22.8213C84.6291 22.8213 84.3061 22.9551 84.0549 23.2228C83.8037 23.4904 83.6775 23.8236 83.6775 24.2231C83.6775 24.6226 83.8031 24.9494 84.0549 25.217C84.3061 25.4846 84.6246 25.6184 85.0103 25.6184C85.3961 25.6184 85.7088 25.4859 85.9626 25.2202C86.2163 24.9546 86.3426 24.6226 86.3426 24.2231Z" fill="#98A4B2"/>
<path d="M90.6673 25.9636H90.1643L88.9577 23.0774L87.7511 25.9636H87.248L88.7187 22.4785H89.2025L90.6667 25.9636H90.6673Z" fill="#98A4B2"/>
<path d="M94.0996 25.9636H93.6343V24.3896H91.7113V25.9636H91.2461V22.4785H91.7113V23.9628H93.6343V22.4785H94.0996V25.9636Z" fill="#98A4B2"/>
<path d="M98.4855 24.2231C98.4855 24.7415 98.3138 25.1748 97.9703 25.5229C97.6268 25.8711 97.1994 26.0452 96.6881 26.0452C96.1767 26.0452 95.7595 25.8711 95.4122 25.5229C95.0643 25.1748 94.8906 24.7415 94.8906 24.2231C94.8906 23.7047 95.0611 23.2708 95.4026 22.92C95.7442 22.5699 96.1729 22.3945 96.6881 22.3945C97.2033 22.3945 97.6268 22.5686 97.9703 22.9168C98.3138 23.265 98.4855 23.7002 98.4855 24.2231ZM98.0203 24.2231C98.0203 23.8282 97.8934 23.4956 97.6403 23.226C97.3865 22.9564 97.0693 22.8213 96.6881 22.8213C96.3068 22.8213 95.9838 22.9551 95.7326 23.2228C95.4814 23.4904 95.3552 23.8236 95.3552 24.2231C95.3552 24.6226 95.4808 24.9494 95.7326 25.217C95.9838 25.4846 96.3023 25.6184 96.6881 25.6184C97.0738 25.6184 97.3865 25.4859 97.6403 25.2202C97.894 24.9546 98.0203 24.6226 98.0203 24.2231Z" fill="#98A4B2"/>
<path d="M101.063 22.9053H99.7367V25.9636H99.2715V22.4785H101.063V22.9053Z" fill="#98A4B2"/>
<path d="M105.13 24.2231C105.13 24.7415 104.958 25.1748 104.615 25.5229C104.271 25.8711 103.844 26.0452 103.333 26.0452C102.821 26.0452 102.404 25.8711 102.057 25.5229C101.709 25.1748 101.535 24.7415 101.535 24.2231C101.535 23.7047 101.706 23.2708 102.047 22.92C102.389 22.5699 102.817 22.3945 103.333 22.3945C103.848 22.3945 104.271 22.5686 104.615 22.9168C104.958 23.265 105.13 23.7002 105.13 24.2231ZM104.665 24.2231C104.665 23.8282 104.538 23.4956 104.285 23.226C104.031 22.9564 103.714 22.8213 103.333 22.8213C102.951 22.8213 102.628 22.9551 102.377 23.2228C102.126 23.4904 102 23.8236 102 24.2231C102 24.6226 102.125 24.9494 102.377 25.217C102.628 25.4846 102.947 25.6184 103.333 25.6184C103.718 25.6184 104.031 25.4859 104.285 25.2202C104.539 24.9546 104.665 24.6226 104.665 24.2231Z" fill="#98A4B2"/>
<path d="M110.937 26.8489H110.472V25.9636H107.512V22.4785H107.977V25.5368H109.913V22.4785H110.378V25.5368H110.937V26.8496V26.8489Z" fill="#98A4B2"/>
<path d="M114.521 25.9636H114.056V23.1476L112.006 25.9636H111.541V22.4785H112.006V25.2945L114.056 22.4785H114.521V25.9636Z" fill="#98A4B2"/>
<path d="M115.911 25.9636H115.445V22.4785H115.911V25.9636ZM118.161 25.9636H117.564L116.181 24.1986L117.526 22.4785H118.073L116.753 24.1609L118.16 25.9642L118.161 25.9636Z" fill="#98A4B2"/>
<path d="M121.792 25.9636H121.289L120.083 23.0774L118.876 25.9636H118.373L119.844 22.4785H120.327L121.792 25.9636H121.792Z" fill="#98A4B2"/>
<path d="M125.872 25.963H125.431V25.3135C125.247 25.5811 125.031 25.7747 124.784 25.8935C124.575 25.9955 124.34 26.0462 124.08 26.0462C123.56 26.0462 123.123 25.8734 122.77 25.5272C122.415 25.1809 122.238 24.7379 122.238 24.1988C122.238 23.7356 122.389 23.3322 122.691 22.9879C123.034 22.593 123.493 22.3955 124.067 22.3955C124.39 22.3955 124.659 22.454 124.875 22.5709C125.09 22.6878 125.271 22.8587 125.418 23.0841L125.431 22.4787H125.871V25.9637L125.872 25.963ZM125.431 24.2429C125.431 23.848 125.301 23.5121 125.042 23.2361C124.782 22.96 124.457 22.8216 124.068 22.8216C123.678 22.8216 123.369 22.9568 123.103 23.2263C122.836 23.4959 122.704 23.8324 122.704 24.2364C122.704 24.6405 122.839 24.9555 123.109 25.2206C123.38 25.4862 123.703 25.6188 124.08 25.6188C124.457 25.6188 124.771 25.4849 125.035 25.2173C125.299 24.9497 125.431 24.6249 125.431 24.2423V24.2429Z" fill="#98A4B2"/>
<path d="M28.926 17.0434H26.8594V5.72754H28.926V17.0434Z" fill="#007DD4"/>
<path d="M39.2143 14.2751C38.8926 15.2027 38.3768 15.9393 37.6681 16.485C36.9593 17.0306 36.0968 17.3028 35.0812 17.3028C33.6124 17.3028 32.4513 16.8104 31.5965 15.8243C30.8423 14.961 30.4648 13.9347 30.4648 12.7459C30.4648 11.5572 30.8269 10.6328 31.551 9.78901C32.3956 8.80358 33.5471 8.31055 35.0055 8.31055C36.0411 8.31055 36.9311 8.58792 37.6757 9.14332C38.4197 9.69872 38.933 10.4405 39.2143 11.3688H36.9516C36.7607 10.992 36.4967 10.7088 36.1596 10.5204C35.8226 10.3321 35.4278 10.2372 34.9754 10.2372C34.2007 10.2372 33.59 10.4834 33.1427 10.9745C32.6955 11.4662 32.4712 12.0665 32.4712 12.7758C32.4712 13.4852 32.6974 14.1341 33.1498 14.6304C33.6022 15.1267 34.211 15.3755 34.9748 15.3755C35.4477 15.3755 35.8443 15.2839 36.1667 15.1C36.4884 14.9162 36.7498 14.6414 36.951 14.2744H39.2137L39.2143 14.2751Z" fill="#007DD4"/>
<path d="M48.8673 12.8099V13.0386C48.8673 13.2523 48.8519 13.4757 48.8218 13.7096H42.2748C42.4055 14.215 42.6695 14.619 43.0668 14.9217C43.4641 15.2244 43.9293 15.3764 44.4624 15.3764C44.8142 15.3764 45.141 15.3212 45.4429 15.2114C45.8049 15.0711 46.1016 14.8665 46.3329 14.5963H48.5956C48.2233 15.4784 47.6728 16.1501 46.9436 16.6113C46.2144 17.0725 45.4127 17.3031 44.5374 17.3031C43.1494 17.3031 42.0383 16.8055 41.2033 15.8097C40.4792 14.9464 40.1172 13.9655 40.1172 12.8684C40.1172 11.7712 40.4792 10.7501 41.2033 9.86599C42.0479 8.82989 43.1693 8.31152 44.5675 8.31152C45.8344 8.31152 46.868 8.7409 47.6677 9.60031C48.4674 10.4591 48.8673 11.5289 48.8673 12.8099ZM46.7706 11.905C46.6296 11.3802 46.3579 10.9703 45.9561 10.6773C45.5537 10.3844 45.0911 10.2382 44.5682 10.2382C44.0453 10.2382 43.5448 10.3902 43.1277 10.6929C42.7105 10.9956 42.4164 11.3997 42.2453 11.905H46.7706Z" fill="#007DD4"/>
<path d="M65.3861 17.0434H63.3195V8.57143L60.4987 17.0434H58.7487L55.9279 8.57143V17.0434H53.8613V5.72754H56.6674L59.624 14.3826L62.5807 5.72754H65.3867V17.0434H65.3861Z" fill="#007DD4"/>
<path d="M75.5528 17.0433H73.7125V15.8961C73.3805 16.3502 72.9704 16.6977 72.4828 16.94C71.9951 17.1816 71.4645 17.3031 70.891 17.3031C69.7844 17.3031 68.8392 16.9069 68.0549 16.1144C67.2199 15.2712 66.8027 14.1942 66.8027 12.8833C66.8027 11.5725 67.2026 10.4831 68.0017 9.6146C68.8014 8.7461 69.7844 8.31152 70.9506 8.31152C72.1169 8.31152 73.0678 8.79612 73.6811 9.764L73.7112 8.57136H75.5516V17.0433H75.5528ZM73.667 12.7924C73.667 12.0525 73.4485 11.4419 73.0108 10.9605C72.5731 10.4792 71.9926 10.2382 71.2685 10.2382C70.5444 10.2382 69.9657 10.487 69.5037 10.9833C69.041 11.4796 68.8097 12.1129 68.8097 12.8833C68.8097 13.6031 69.0385 14.1987 69.496 14.6697C69.9535 15.1406 70.5444 15.3764 71.2685 15.3764C71.9926 15.3764 72.561 15.1387 73.0031 14.6619C73.4453 14.1857 73.667 13.5621 73.667 12.7917V12.7924Z" fill="#007DD4"/>
<path d="M80.9835 10.268C80.3799 10.268 79.93 10.4544 79.6333 10.826C79.3366 11.1982 79.188 11.7465 79.188 12.4701V17.0426H77.1816V8.57064H79.022V9.3352C79.4341 8.6317 80.0223 8.28027 80.7868 8.28027H80.9829V10.268H80.9835Z" fill="#007DD4"/>
<path d="M89.5673 17.0434H86.8824L84.0161 13.0828V17.0434H82.0098V5.72754H84.0161V12.5632L86.701 8.57208H89.0694L86.0526 12.7165L89.5673 17.044V17.0434Z" fill="#007DD4"/>
<path d="M99.1446 12.8099V13.0386C99.1446 13.2523 99.1293 13.4757 99.0991 13.7096H92.5521C92.6828 14.215 92.9468 14.619 93.3441 14.9217C93.7414 15.2244 94.2066 15.3764 94.7398 15.3764C95.0916 15.3764 95.4184 15.3212 95.7202 15.2114C96.0823 15.0711 96.3789 14.8665 96.6103 14.5963H98.8729C98.5006 15.4784 97.9502 16.1501 97.221 16.6113C96.4917 17.0725 95.6901 17.3031 94.8148 17.3031C93.4268 17.3031 92.3156 16.8055 91.4807 15.8097C90.7566 14.9464 90.3945 13.9655 90.3945 12.8684C90.3945 11.7712 90.7566 10.7501 91.4807 9.86599C92.3253 8.82989 93.4467 8.31152 94.8449 8.31152C96.1117 8.31152 97.1453 8.7409 97.9451 9.60031C98.7448 10.4591 99.1446 11.5289 99.1446 12.8099ZM97.0479 11.905C96.907 11.3802 96.6353 10.9703 96.2335 10.6773C95.8311 10.3844 95.3684 10.2382 94.8455 10.2382C94.3226 10.2382 93.8222 10.3902 93.405 10.6929C92.9878 10.9956 92.6937 11.3997 92.5226 11.905H97.0479Z" fill="#007DD4"/>
<path d="M103.928 10.3757H102.721V17.043H100.715V10.3757H99.7344V8.57111H100.715V5.72656H102.721V8.57111H103.928V10.3757Z" fill="#007DD4"/>
<path d="M106.944 7.59316H104.938V5.72754H106.944V7.59316ZM106.944 17.0434H104.938V8.57143H106.944V17.0434Z" fill="#007DD4"/>
<path d="M115.98 17.0433H113.974V12.5475C113.974 11.6913 113.793 11.0697 113.431 10.6819C113.149 10.3759 112.772 10.2233 112.3 10.2233C111.585 10.2233 111.093 10.5136 110.821 11.095C110.65 11.4523 110.565 11.9362 110.565 12.5475V17.0433H108.559V8.57136H110.399V9.35151C110.65 9.07024 110.902 8.85458 111.153 8.70322C111.606 8.44209 112.128 8.31152 112.722 8.31152C113.707 8.31152 114.497 8.64736 115.09 9.31903C115.684 9.99071 115.98 10.917 115.98 12.0973V17.0433Z" fill="#007DD4"/>
<path d="M125.937 15.7584C125.937 17.2057 125.479 18.3477 124.564 19.1837C123.729 19.9482 122.689 20.3308 121.442 20.3308C120.426 20.3308 119.539 20.0606 118.779 19.5202C118.02 18.9797 117.514 18.2151 117.263 17.2265H119.571C119.692 17.6032 119.921 17.8942 120.258 18.0982C120.595 18.3022 120.989 18.4042 121.442 18.4042C122.136 18.4042 122.724 18.1801 123.207 17.7312C123.689 17.2823 123.931 16.7425 123.931 16.1105V15.8045C123.588 16.2631 123.214 16.5996 122.807 16.814C122.399 17.0283 121.934 17.1349 121.411 17.1349C120.244 17.1349 119.249 16.7023 118.424 15.8376C117.6 14.9724 117.188 13.924 117.188 12.693C117.188 11.462 117.602 10.3597 118.432 9.54054C119.262 8.72141 120.27 8.31152 121.456 8.31152C121.919 8.31152 122.336 8.38752 122.709 8.53823C123.292 8.77013 123.744 9.16833 124.066 9.73347L124.097 8.57136H125.937V15.7584ZM124.051 12.7534C124.051 11.9914 123.83 11.3815 123.387 10.9242C122.944 10.4669 122.356 10.2382 121.622 10.2382C120.889 10.2382 120.265 10.487 119.812 10.9852C119.4 11.4425 119.194 12.007 119.194 12.6774C119.194 13.3887 119.4 13.9785 119.812 14.4456C120.265 14.9536 120.868 15.2075 121.622 15.2075C122.377 15.2075 122.945 14.9737 123.387 14.506C123.829 14.0389 124.051 13.4543 124.051 12.7528V12.7534Z" fill="#007DD4"/>
<path d="M0 20.7432L4.85405 31.9999H7.29805L0 20.7432Z" fill="url(#paint0_linear_1_7623)"/>
<path d="M3.38726 17.9121L0 20.7437L7.29805 32.0004L3.38726 17.9121Z" fill="url(#paint1_linear_1_7623)"/>
<path d="M0.628906 8.56641L7.29834 32.0003H11.4187L0.628906 8.56641Z" fill="url(#paint2_linear_1_7623)"/>
<path d="M17.9829 22.0889L11.418 32.0003H14.0722L17.9829 22.0889Z" fill="url(#paint3_linear_1_7623)"/>
<path d="M15.5383 14.5127L17.9829 22.0882L11.418 31.9996L15.5383 14.5127Z" fill="url(#paint4_linear_1_7623)"/>
<path d="M7.01895 0L0.628906 8.56612L7.85711 4.84982L7.01895 0Z" fill="url(#paint5_linear_1_7623)"/>
<path d="M11.9434 2.93809L7.8577 4.84982L7.01953 0L11.9434 2.93809Z" fill="url(#paint6_linear_1_7623)"/>
<path d="M0.628906 8.56641L15.539 14.5134L11.4187 32.0003L0.628906 8.56641Z" fill="white"/>
<path d="M8.77089 11.8132L7.85711 4.84961L0.628906 8.5659L8.77089 11.8132Z" fill="url(#paint7_linear_1_7623)"/>
<path d="M11.417 32.0004L11.9412 2.93848L7.85547 4.85021L11.417 32.0004Z" fill="url(#paint8_linear_1_7623)"/>
<path d="M0.628906 8.56641L15.539 14.5134L11.4187 32.0003L0.628906 8.56641Z" fill="url(#paint9_linear_1_7623)"/>
<path d="M11.4193 32.0001L11.7615 13.0061L8.77148 11.8135L11.4193 32.0001Z" fill="url(#paint10_linear_1_7623)"/>
</g>
<defs>
<linearGradient id="paint0_linear_1_7623" x1="3.64935" y1="19.8272" x2="3.64935" y2="33.5953" gradientUnits="userSpaceOnUse">
<stop stop-color="#82F3F3"/>
<stop offset="0.92" stop-color="#4AEDED"/>
</linearGradient>
<linearGradient id="paint1_linear_1_7623" x1="0" y1="24.9562" x2="7.29805" y2="24.9562" gradientUnits="userSpaceOnUse">
<stop stop-color="#0072FD"/>
<stop offset="0.61" stop-color="#34E1F2"/>
</linearGradient>
<linearGradient id="paint2_linear_1_7623" x1="-1.87469" y1="10.0319" x2="11.0938" y2="32.1903" gradientUnits="userSpaceOnUse">
<stop offset="0.22" stop-color="#0078CC"/>
<stop offset="0.5" stop-color="#00C4FF"/>
</linearGradient>
<linearGradient id="paint3_linear_1_7623" x1="11.418" y1="27.0446" x2="17.9829" y2="27.0446" gradientUnits="userSpaceOnUse">
<stop stop-color="#82F3F3"/>
<stop offset="0.92" stop-color="#4AEDED"/>
</linearGradient>
<linearGradient id="paint4_linear_1_7623" x1="10.2588" y1="17.6028" x2="16.8306" y2="28.832" gradientUnits="userSpaceOnUse">
<stop offset="0.31" stop-color="#2FC8EC"/>
<stop offset="0.92" stop-color="#0E9BEA"/>
</linearGradient>
<linearGradient id="paint5_linear_1_7623" x1="2.54553" y1="9.68795" x2="7.91015" y2="0.521902" gradientUnits="userSpaceOnUse">
<stop offset="0.28" stop-color="#47EAED"/>
<stop offset="0.93" stop-color="#4AEDED"/>
</linearGradient>
<linearGradient id="paint6_linear_1_7623" x1="6.8196" y1="3.02708" x2="10.7265" y2="0.80157" gradientUnits="userSpaceOnUse">
<stop stop-color="#2FC8EC"/>
<stop offset="0.72" stop-color="#2FC8EC"/>
</linearGradient>
<linearGradient id="paint7_linear_1_7623" x1="3.46508" y1="11.4416" x2="8.98671" y2="5.99471" gradientUnits="userSpaceOnUse">
<stop offset="0.28" stop-color="#41E2ED"/>
<stop offset="0.93" stop-color="#22B6EB"/>
</linearGradient>
<linearGradient id="paint8_linear_1_7623" x1="9.23575" y1="3.42177" x2="14.2533" y2="31.4931" gradientUnits="userSpaceOnUse">
<stop offset="0.28" stop-color="#1190ED"/>
<stop offset="0.93" stop-color="#01299A"/>
</linearGradient>
<linearGradient id="paint9_linear_1_7623" x1="8.08396" y1="8.56641" x2="8.08396" y2="32.0003" gradientUnits="userSpaceOnUse">
<stop offset="0.31" stop-color="#2AC1EB"/>
<stop offset="1" stop-color="#0235F9"/>
</linearGradient>
<linearGradient id="paint10_linear_1_7623" x1="9.70257" y1="11.6472" x2="13.2805" y2="31.6671" gradientUnits="userSpaceOnUse">
<stop offset="0.28" stop-color="#1190ED"/>
<stop offset="0.93" stop-color="#01299A"/>
</linearGradient>
<clipPath id="clip0_1_7623">
<rect width="125.935" height="32" fill="white"/>
</clipPath>
</defs>
</svg>
