<svg width="144" height="144" viewBox="0 0 144 144" fill="none" xmlns="http://www.w3.org/2000/svg">
<path d="M90.5273 131.157C90.5273 130.253 89.7947 129.521 88.8905 129.521C87.9863 129.521 87.2536 130.253 87.2536 131.157C87.2536 133.01 81.1699 135.81 72.0003 135.81C62.8301 135.81 56.7464 133.01 56.7464 131.157C56.7464 130.253 56.0137 129.521 55.1095 129.521C54.2053 129.521 53.4727 130.253 53.4727 131.157C53.4727 136.361 62.793 139.084 72.0003 139.084C81.207 139.084 90.5273 136.361 90.5273 131.157Z" fill="#18A4CF"/>
<path d="M71.9996 4.91504C42.4315 4.91504 18.3896 28.9701 18.3896 58.5249C18.3896 78.3635 29.2583 96.5128 46.7661 105.876C53.3659 109.398 58.9704 114.414 62.9906 120.372L70.8737 132.078C71.1749 132.524 71.6857 132.799 72.2223 132.799H72.2355C72.7854 132.786 73.2961 132.511 73.5973 132.052L80.7864 120.948C84.9244 114.531 90.4766 109.398 96.8142 106.085C114.584 96.8011 125.609 78.5733 125.609 58.5252C125.609 28.9701 101.568 4.91504 71.9996 4.91504ZM80.5898 81.0216C79.8827 81.2834 79.1624 81.5191 78.4422 81.7286C78.2849 81.768 78.1409 81.781 77.9969 81.781C77.2767 81.781 76.6219 81.3096 76.4256 80.5761C76.1767 79.7118 76.6874 78.8084 77.5649 78.5727C78.1935 78.3894 78.8221 78.193 79.4243 77.9574C80.2624 77.63 81.2052 78.0623 81.5325 78.9001C81.8599 79.7514 81.4279 80.6942 80.5898 81.0216ZM92.4799 71.1874C91.9953 71.96 90.987 72.1957 90.2277 71.7243C89.4551 71.2397 89.2194 70.2314 89.704 69.472C91.7337 66.1854 92.8073 62.4009 92.8073 58.5249C92.8073 47.0409 83.4838 37.6911 72.0128 37.6911C60.5288 37.6911 51.1921 47.0407 51.1921 58.5249C51.1921 69.9828 60.5288 79.3195 72.0128 79.3195C72.3269 79.3195 72.6282 79.3062 72.9426 79.2933C73.8592 79.2539 74.6056 79.9613 74.645 80.8646C74.6844 81.7683 73.9902 82.5277 73.0866 82.567C72.7331 82.5803 72.3663 82.5932 72.0128 82.5932C58.7215 82.5932 47.9184 71.7901 47.9184 58.5249C47.9184 45.2336 58.7215 34.4176 72.0128 34.4176C85.2909 34.4176 96.081 45.2339 96.081 58.5249C96.0807 63.0165 94.8368 67.3899 92.4799 71.1874Z" fill="#18A4CF"/>
<circle cx="68.5" cy="59.5" r="34.5" fill="#18A4CF"/>
<path d="M89.5554 40C95.8449 40 100.151 42.1191 101.522 43.3656C100.748 42.867 97.2715 41.4487 89.5554 41.4487C76.8409 41.4487 71.6056 51.9951 60.387 52.7144C54.668 53.0811 44.6886 51.0791 38.6977 50.7782C32.3405 50.4589 29.1408 52.7144 27.1051 54.2102C28.6009 52.8391 32.7069 50.0967 38.6977 50.0967C46.1767 50.0967 46.9247 51.2186 58.5172 51.5926C69.7549 51.9551 74.9712 40 89.5554 40Z" fill="white"/>
<path d="M86.5637 44.4874C83.946 47.1051 78.7107 51.2186 71.6056 51.2186C74.9712 51.5926 81.7023 51.5926 86.5637 44.4874Z" fill="white"/>
<path d="M45.8028 53.8363C43.6906 53.7189 39.6949 55.0828 39.0716 55.3321C41.6857 54.8964 44.701 53.3279 51.4229 55.5299C55.9504 56.7663 61.8534 59.8195 69.5604 59.8195C78.5353 59.8195 91.4251 48.227 104.887 48.227C109.718 48.227 109.834 48.75 115.223 48.75C116.845 48.75 119.279 47.8229 120.967 46.7312C120.095 46.9805 118.422 47.552 116.324 47.8229C113.195 48.227 108.627 46.7312 104.887 46.7312C87.6856 46.7312 79.5274 59.0716 68.24 59.0716C62.2567 59.0716 52.534 54.2102 45.8028 53.8363Z" fill="white"/>
<path d="M20 65.0549C20.374 65.0549 21.8698 66.1767 26.7312 65.8028C31.9665 65.4001 36.454 59.8195 45.8028 59.8195C54.7777 59.8195 67.1174 66.7137 74.5972 66.7137C79.3743 66.7137 82.3835 65.7271 83.3067 65.2314C83.4042 65.1695 83.4928 65.1104 83.5721 65.0549C83.5258 65.1012 83.437 65.1614 83.3067 65.2314C81.8724 66.1425 78.519 67.6726 74.5972 67.6726C67.4921 67.6726 54.4111 61.4412 45.8028 60.9414C38.3237 60.5072 30.8447 66.7137 26.7312 66.7137C23.4404 66.7137 20.8726 65.9274 20 65.0549Z" fill="white"/>
<path d="M111.34 54.7766C107.394 54.4269 102.768 56.7033 101.522 57.5758C103.17 56.8627 107.225 55.1181 111.34 55.4719C116.208 55.8905 119.511 58.1955 122.089 59.8195C120.09 58.0796 116.208 55.2079 111.34 54.7766Z" fill="white"/>
<circle cx="45.8027" cy="68.7948" r="5.6093" fill="white"/>
<circle cx="100.4" cy="67.2988" r="5.6093" fill="white"/>
</svg>
