<svg width="64" height="64" viewBox="0 0 64 64" fill="none" xmlns="http://www.w3.org/2000/svg">
<path d="M57.2747 58.2286C57.2011 58.0073 57.0596 57.8147 56.8703 57.6783C56.681 57.542 56.4536 57.4687 56.2203 57.4689H56.0737V8.20081C56.0737 8.08477 56.0276 7.97349 55.9456 7.89145C55.8636 7.8094 55.7523 7.76331 55.6362 7.76331C55.5202 7.76331 55.4089 7.8094 55.3269 7.89145C55.2448 7.97349 55.1987 8.08477 55.1987 8.20081V57.4689H11.038C11.2094 48.7323 16.5098 40.4799 26.0076 34.1886C26.3697 33.9497 26.6668 33.6247 26.8724 33.2428C27.0781 32.8608 27.1857 32.4338 27.1857 32C27.1857 31.5662 27.0781 31.1392 26.8724 30.7572C26.6668 30.3753 26.3697 30.0503 26.0076 29.8114C16.5411 23.5409 11.225 15.287 11.0386 6.57019C11.0317 6.32603 10.9301 6.09413 10.7553 5.92354C10.5805 5.75295 10.3462 5.65705 10.1019 5.65613H7.78041C7.73078 5.65618 7.68241 5.64059 7.64215 5.61157C7.6019 5.58256 7.57181 5.54159 7.55616 5.4945L6.64015 2.74878C6.62827 2.71324 6.62501 2.67538 6.63065 2.63833C6.63628 2.60129 6.65064 2.56611 6.67254 2.5357C6.69445 2.5053 6.72327 2.48054 6.75662 2.46346C6.78998 2.44639 6.82692 2.43749 6.86439 2.4375H57.1364C57.1738 2.43749 57.2108 2.44639 57.2441 2.46346C57.2775 2.48054 57.3063 2.5053 57.3282 2.5357C57.3501 2.56611 57.3645 2.60129 57.3701 2.63833C57.3757 2.67538 57.3725 2.71324 57.3606 2.74878L56.4446 5.49451C56.4289 5.5416 56.3989 5.58256 56.3586 5.61158C56.3183 5.64059 56.27 5.65618 56.2203 5.65613H12.8043C12.6883 5.65613 12.577 5.70223 12.495 5.78427C12.4129 5.86632 12.3668 5.9776 12.3668 6.09363C12.3668 6.20966 12.4129 6.32094 12.495 6.40299C12.577 6.48504 12.6883 6.53113 12.8043 6.53113H52.9627C52.7914 15.2648 47.4943 23.515 38.0025 29.8054C37.6396 30.0445 37.3417 30.3698 37.1354 30.7523C36.9291 31.1347 36.8209 31.5623 36.8203 31.9968C36.8198 32.4314 36.927 32.8593 37.1324 33.2422C37.3377 33.6251 37.6348 33.9512 37.9971 34.1912C46.6947 39.9536 51.9644 47.5177 52.8356 55.4899C52.8473 55.597 52.8981 55.696 52.9783 55.7679C53.0584 55.8399 53.1623 55.8797 53.27 55.8799C53.2861 55.8799 53.3021 55.879 53.318 55.8773C53.4333 55.8647 53.539 55.8068 53.6116 55.7163C53.6843 55.6259 53.718 55.5103 53.7055 55.3949C52.8055 47.1597 47.3984 39.3702 38.4804 33.4617C38.2385 33.3015 38.0402 33.0838 37.9032 32.8281C37.7662 32.5724 37.6948 32.2868 37.6953 31.9967C37.6959 31.7066 37.7684 31.4212 37.9063 31.1661C38.0443 30.9109 38.2434 30.694 38.4858 30.5347C48.2314 24.0762 53.6679 15.567 53.838 6.53113H56.2203C56.4536 6.53134 56.681 6.45804 56.8703 6.32166C57.0596 6.18527 57.201 5.99273 57.2747 5.77137L58.1907 3.02564C58.2464 2.85856 58.2617 2.68063 58.2351 2.50651C58.2086 2.33238 58.1411 2.16706 58.0381 2.02416C57.9351 1.88127 57.7997 1.76489 57.6429 1.68462C57.4861 1.60435 57.3125 1.5625 57.1364 1.5625H6.86439C6.68826 1.5625 6.51465 1.60435 6.35787 1.68462C6.20109 1.76488 6.06564 1.88126 5.96267 2.02416C5.8597 2.16706 5.79216 2.33238 5.76563 2.5065C5.7391 2.68062 5.75433 2.85856 5.81007 3.02564L6.72609 5.77136C6.7997 5.99272 6.94119 6.18527 7.13045 6.32165C7.31971 6.45803 7.54713 6.53133 7.78041 6.53113H7.92701V57.4689H7.78041C7.54713 57.4687 7.31971 57.542 7.13045 57.6784C6.94119 57.8147 6.7997 58.0073 6.72609 58.2286L5.81007 60.9743C5.75432 61.1413 5.73908 61.3193 5.7656 61.4934C5.79213 61.6675 5.85966 61.8329 5.96263 61.9758C6.0656 62.1187 6.20106 62.2351 6.35785 62.3154C6.51463 62.3956 6.68825 62.4375 6.86439 62.4375H57.1364C57.3125 62.4375 57.4861 62.3956 57.6429 62.3154C57.7997 62.2351 57.9351 62.1187 58.0381 61.9758C58.1411 61.8329 58.2086 61.6676 58.2351 61.4935C58.2617 61.3194 58.2464 61.1414 58.1907 60.9744L57.2747 58.2286ZM8.80202 6.53113H10.1019C10.1177 6.53085 10.133 6.53671 10.1446 6.54748C10.1561 6.55826 10.163 6.57309 10.1638 6.58886C10.3566 15.601 15.8118 24.1073 25.5244 30.5409C25.766 30.7 25.9644 30.9166 26.1016 31.1713C26.2388 31.4259 26.3107 31.7107 26.3107 32C26.3107 32.2893 26.2388 32.5741 26.1016 32.8287C25.9644 33.0834 25.766 33.3 25.5244 33.4591C15.7728 39.9186 10.3329 48.4301 10.1628 57.4689H8.80201L8.80202 6.53113ZM10.7703 60.6976C10.722 60.8412 10.7076 60.994 10.7282 61.144C10.7489 61.2941 10.8039 61.4373 10.8892 61.5625H6.86439C6.82692 61.5625 6.78998 61.5536 6.75662 61.5365C6.72327 61.5195 6.69445 61.4947 6.67254 61.4643C6.65064 61.4339 6.63628 61.3987 6.63065 61.3617C6.62501 61.3246 6.62827 61.2868 6.64015 61.2512L7.55616 58.5055C7.57181 58.4584 7.6019 58.4174 7.64215 58.3884C7.68241 58.3594 7.73078 58.3438 7.78041 58.3439H12.806C11.8432 58.8288 11.1114 59.675 10.7703 60.6976Z" fill="#98A4B2"/>
<path d="M15.5248 54.1063C15.4801 54.3086 15.4814 54.5183 15.5284 54.72C15.5755 54.9217 15.6671 55.1104 15.7967 55.272C15.9262 55.4336 16.0903 55.5642 16.277 55.654C16.4636 55.7439 16.668 55.7908 16.8751 55.7912H47.1257C47.3328 55.7908 47.5372 55.7439 47.7239 55.6541C47.9105 55.5642 48.0746 55.4337 48.2042 55.272C48.3337 55.1104 48.4254 54.9218 48.4725 54.72C48.5195 54.5183 48.5207 54.3086 48.4761 54.1063C47.2162 48.2793 43.0971 43.0447 37.0667 39.01C35.5674 38.0072 33.8042 37.4719 32.0004 37.4719C30.1967 37.4719 28.4335 38.0072 26.9342 39.01C20.9038 43.0447 16.7847 48.2793 15.5248 54.1063Z" fill="#98A4B2"/>
<path d="M32.4518 33.8425C35.1056 27.277 40.3371 25.5039 43.3209 21.285C43.4507 21.104 43.5148 20.884 43.5026 20.6616C43.4903 20.4391 43.4025 20.2275 43.2536 20.0618C40.4349 16.9534 27.9479 21.1257 19.9578 17.8632C19.8614 17.8231 19.7555 17.812 19.6529 17.8311C19.5503 17.8503 19.4555 17.8989 19.38 17.971C19.3046 18.0431 19.2517 18.1356 19.228 18.2372C19.2042 18.3388 19.2106 18.4452 19.2462 18.5433C21.5656 25.0012 28.3868 26.0206 31.5483 33.844C31.5845 33.9343 31.647 34.0116 31.7276 34.066C31.8082 34.1204 31.9033 34.1494 32.0006 34.1492C32.0978 34.1491 32.1928 34.1198 32.2732 34.0651C32.3537 34.0104 32.4159 33.9328 32.4518 33.8425Z" fill="#98A4B2"/>
</svg>
